<svg xmlns="http://www.w3.org/2000/svg" viewBox="0 0 198.96 160.45"><defs><style>.cls-1{fill:#595a5a;}</style></defs><g id="Layer_2" data-name="Layer 2"><g id="Layer_2-2" data-name="Layer 2"><path class="cls-1" d="M131.38,81a18.93,18.93,0,0,1-1.46,7.32H17.23a18.19,18.19,0,0,1-.18-2.57,19,19,0,0,1,15-18.57c0-.14,0-.28,0-.42A19,19,0,0,1,46.76,48.23c0-.43,0-.86,0-1.29A23.34,23.34,0,0,1,90.09,35a19,19,0,0,1,20.34,27.11,18.11,18.11,0,0,1,2-.1A19,19,0,0,1,131.38,81Z"/><rect class="cls-1" x="-7.25" y="122.79" width="54.13" height="1" transform="translate(-89.69 63.28) rotate(-52.14)"/><rect class="cls-1" x="-9.25" y="120.79" width="58.13" height="5" transform="translate(-89.69 63.29) rotate(-52.15)"/><rect class="cls-1" x="20.7" y="132.45" width="54.13" height="1" transform="translate(-86.52 89.07) rotate(-52.14)"/><rect class="cls-1" x="18.7" y="130.45" width="58.13" height="5" transform="translate(-86.52 89.09) rotate(-52.15)"/><rect class="cls-1" x="47.15" y="117.02" width="54.13" height="1" transform="translate(-64.12 104) rotate(-52.14)"/><rect class="cls-1" x="45.15" y="115.02" width="58.13" height="5" transform="translate(-64.12 104.01) rotate(-52.15)"/><rect class="cls-1" x="13.58" y="117.02" width="54.13" height="1" transform="translate(-77.09 77.49) rotate(-52.14)"/><rect class="cls-1" x="11.58" y="115.02" width="58.13" height="5" transform="translate(-77.09 77.5) rotate(-52.15)"/><path class="cls-1" d="M84.11,126.8v-1l69.9-1.06a8.43,8.43,0,0,0,8.08-10.34c-1.25-5.43-4.48-9.48-8.43-10.58a13.5,13.5,0,0,0-10.21,2,7.85,7.85,0,0,0-3.81,5.17c-.53,3.65,3,6.64,3,6.67a10.71,10.71,0,0,0,8.31,2.17,5.54,5.54,0,0,0,4-2.44c1.13-1.94.67-5-1.17-7.79l.83-.55c2.08,3.16,2.54,6.55,1.2,8.84a6.47,6.47,0,0,1-4.68,2.93,11.63,11.63,0,0,1-9.14-2.4c-.16-.13-3.95-3.38-3.34-7.58a8.83,8.83,0,0,1,4.25-5.85,14.48,14.48,0,0,1,11-2.08c4.31,1.19,7.81,5.53,9.14,11.32A9.43,9.43,0,0,1,154,125.74Z"/><path class="cls-1" d="M82.14,128.83l-.07-5,65.77-1a13.49,13.49,0,0,1-7.14-2.94c-.5-.42-4.8-4.22-4-9.4a10.79,10.79,0,0,1,5.14-7.24,16.38,16.38,0,0,1,12.66-2.33c5,1.39,9,6.29,10.55,12.8a11.45,11.45,0,0,1-11,14Zm73.63-21.68.5.75c2.5,3.8,3,8,1.26,10.95a8.48,8.48,0,0,1-6.07,3.89l-.32.05,2.83,0a6.44,6.44,0,0,0,6.16-7.9A13.74,13.74,0,0,0,155.77,107.15ZM151,105.49a12.46,12.46,0,0,0-6.51,2,5.92,5.92,0,0,0-2.92,3.78c-.3,2.08,1.57,4.21,2.32,4.86a8.76,8.76,0,0,0,6.67,1.72,3.65,3.65,0,0,0,2.61-1.47c.59-1,.5-3.24-1.12-5.68L151,109l3.8-2.52a6.87,6.87,0,0,0-1.68-.72A8.06,8.06,0,0,0,151,105.49Z"/><path class="cls-1" d="M117.77,133.45l0-1,69.91-1.06a8.44,8.44,0,0,0,8.08-10.34c-1.25-5.44-4.48-9.49-8.43-10.58a13.41,13.41,0,0,0-10.21,2,7.83,7.83,0,0,0-3.81,5.16c-.54,3.66,3,6.64,3,6.67a10.75,10.75,0,0,0,8.32,2.18,5.54,5.54,0,0,0,4-2.44c1.12-1.94.66-5-1.18-7.79l.84-.55c2.08,3.15,2.54,6.54,1.2,8.84a6.49,6.49,0,0,1-4.69,2.92,11.64,11.64,0,0,1-9.13-2.39c-.16-.14-4-3.38-3.34-7.58a8.81,8.81,0,0,1,4.25-5.86,14.53,14.53,0,0,1,11-2.08c4.3,1.19,7.8,5.53,9.13,11.32a9.44,9.44,0,0,1-9,11.57Z"/><path class="cls-1" d="M115.8,135.48l-.08-5,65.77-1a13.44,13.44,0,0,1-7.14-2.93c-.49-.42-4.79-4.21-4-9.4a10.73,10.73,0,0,1,5.14-7.24,16.31,16.31,0,0,1,12.65-2.33c5,1.38,9.06,6.29,10.55,12.79a11.43,11.43,0,0,1-11,14Zm73.63-21.68.5.75c2.5,3.79,3,8,1.26,11a8.44,8.44,0,0,1-6.08,3.88l-.31.05,2.83,0a6.44,6.44,0,0,0,6.16-7.89A13.8,13.8,0,0,0,189.43,113.8Zm-4.73-1.66a12.45,12.45,0,0,0-6.51,2,5.93,5.93,0,0,0-2.92,3.78c-.31,2.09,1.56,4.21,2.31,4.86a8.79,8.79,0,0,0,6.68,1.73,3.69,3.69,0,0,0,2.61-1.48c.59-1,.49-3.23-1.12-5.68l-1.1-1.67,3.81-2.51a6.9,6.9,0,0,0-1.68-.73A8.12,8.12,0,0,0,184.7,112.14Z"/><path class="cls-1" d="M95.24,158.42l0-1,69.91-1.06A8.44,8.44,0,0,0,173.21,146c-1.25-5.44-4.48-9.49-8.43-10.58a13.41,13.41,0,0,0-10.21,1.95,7.81,7.81,0,0,0-3.81,5.16c-.54,3.65,3,6.64,3,6.67a10.75,10.75,0,0,0,8.32,2.18,5.58,5.58,0,0,0,4-2.44c1.12-1.94.66-5-1.18-7.79l.84-.55c2.08,3.15,2.54,6.54,1.2,8.84a6.49,6.49,0,0,1-4.69,2.92,11.64,11.64,0,0,1-9.13-2.39c-.16-.14-4-3.39-3.34-7.59a8.79,8.79,0,0,1,4.25-5.85,14.53,14.53,0,0,1,11-2.08c4.3,1.19,7.8,5.53,9.14,11.32a9.45,9.45,0,0,1-9.05,11.57Z"/><path class="cls-1" d="M93.27,160.45l-.08-5,65.76-1a13.48,13.48,0,0,1-7.13-2.93c-.49-.42-4.79-4.22-4-9.41a10.78,10.78,0,0,1,5.14-7.24,16.39,16.39,0,0,1,12.65-2.33c5,1.39,9.06,6.3,10.55,12.8a11.43,11.43,0,0,1-11,14Zm73.63-21.69.5.76c2.5,3.79,3,8,1.26,10.94a8.42,8.42,0,0,1-6.08,3.89l-.31.05,2.83,0a6.44,6.44,0,0,0,6.16-7.9A13.87,13.87,0,0,0,166.9,138.76Zm-4.73-1.66a12.43,12.43,0,0,0-6.51,2,5.88,5.88,0,0,0-2.92,3.78c-.31,2.08,1.57,4.21,2.31,4.86a8.79,8.79,0,0,0,6.68,1.73,3.69,3.69,0,0,0,2.61-1.48c.59-1,.49-3.23-1.12-5.68l-1.1-1.67,3.81-2.51a6.9,6.9,0,0,0-1.68-.73A8.12,8.12,0,0,0,162.17,137.1Z"/><path class="cls-1" d="M114.55,65.07a16.6,16.6,0,1,1,16.6-16.59A16.61,16.61,0,0,1,114.55,65.07Zm0-32.53a15.94,15.94,0,1,0,15.94,15.94A16,16,0,0,0,114.55,32.54Z"/><path class="cls-1" d="M114.55,67.07a18.6,18.6,0,1,1,18.6-18.59A18.61,18.61,0,0,1,114.55,67.07Zm0-32.53a13.94,13.94,0,1,0,13.94,13.94A14,14,0,0,0,114.55,34.54Z"/><rect class="cls-1" x="114.23" y="2" width="0.65" height="20.14"/><rect class="cls-1" x="112.23" width="4.65" height="24.14"/><rect class="cls-1" x="90.82" y="10.52" width="0.65" height="20.14" transform="translate(8.09 63.41) rotate(-40)"/><rect class="cls-1" x="88.82" y="8.52" width="4.65" height="24.14" transform="translate(8.09 63.41) rotate(-40)"/><rect class="cls-1" x="78.37" y="32.09" width="0.65" height="20.14" transform="translate(23.52 112.34) rotate(-80)"/><rect class="cls-1" x="72.95" y="66.36" width="20.14" height="0.65" transform="translate(-22.22 50.48) rotate(-30.02)"/><rect class="cls-1" x="92.03" y="82.36" width="20.14" height="0.65" transform="translate(-10.47 150.44) rotate(-70.05)"/><rect class="cls-1" x="90.03" y="80.36" width="24.14" height="4.65" transform="translate(-10.46 150.46) rotate(-70.05)"/><rect class="cls-1" x="126.68" y="72.62" width="0.65" height="20.14" transform="translate(-20.62 48.43) rotate(-20)"/><rect class="cls-1" x="124.68" y="70.62" width="4.65" height="24.14" transform="translate(-20.62 48.43) rotate(-20)"/><rect class="cls-1" x="145.76" y="56.61" width="0.65" height="20.14" transform="translate(15.29 159.85) rotate(-60)"/><rect class="cls-1" x="143.76" y="54.61" width="4.65" height="24.14" transform="translate(15.29 159.85) rotate(-60)"/><rect class="cls-1" x="140.34" y="41.83" width="20.14" height="0.65" transform="translate(-5.03 26.75) rotate(-10)"/><rect class="cls-1" x="138.34" y="39.83" width="24.14" height="4.65" transform="translate(-5.03 26.75) rotate(-10)"/><rect class="cls-1" x="127.89" y="20.26" width="20.14" height="0.65" transform="translate(33.47 112.99) rotate(-49.97)"/><rect class="cls-1" x="125.88" y="18.26" width="24.14" height="4.65" transform="translate(33.48 113) rotate(-49.98)"/><path class="cls-1" d="M86.27,109.07c0,.18.39.13,1,0C86.66,108.92,86.27,108.89,86.27,109.07Z"/><path class="cls-1" d="M110,122.82c.14-.08-.06-.37-.45-.79C109.67,122.58,109.81,122.9,110,122.82Z"/><path class="cls-1" d="M94.25,95.32c-.14.08.06.37.45.78C94.53,95.56,94.39,95.24,94.25,95.32Z"/><path class="cls-1" d="M110,95.36c-.14-.08-.29.25-.45.81C110,95.74,110.17,95.45,110,95.36Z"/><path class="cls-1" d="M94.17,122.77c.14.08.29-.24.45-.8C94.23,122.4,94,122.69,94.17,122.77Z"/><path class="cls-1" d="M116.94,109.07c.6.14,1,.18,1,0S117.54,108.93,116.94,109.07Z"/><path class="cls-1" d="M110.16,107.65H110l-.28-.08c.69-.36,1.34-.76,1.79-1a20.42,20.42,0,0,0-3.34.19h-.06a8.21,8.21,0,0,0-1.14.07h-.68l.14-.08-.19.09h-.1c.07,0,.11-.09.09-.12s-.14,0-.35.13h-.11l-.15,0h-.4c-.51,0-1,.57-1.52,1.08h0a.91.91,0,0,0-.49.26l-.18.1.21-.23c.5-.28,1-.54,1.17-.92l0-.09c1-.53,2-1,2.23-1.77a9.93,9.93,0,0,0,.3-1c.14-.4.26-.83.37-1.27a1.38,1.38,0,0,0,.2-.33,14.3,14.3,0,0,0,.73-2.18,39.78,39.78,0,0,0,1.36-4.38,30.89,30.89,0,0,0-3.43,3.83.22.22,0,0,0-.05.08,12.75,12.75,0,0,0-1.16,1.32l0,.06a3.45,3.45,0,0,0-.28.26c0-.76,0-1.53,0-2a19.13,19.13,0,0,0-1.54,3l0,.09a7.57,7.57,0,0,0-.49,1l0,.09c-.15.23-.29.47-.41.7,0-.14,0-.21-.06-.21h0v0a1.48,1.48,0,0,0,0,.48,1.07,1.07,0,0,0-.07.32l-.12.22a1.67,1.67,0,0,0,0,1,.62.62,0,0,0-.14-.28l-.06-.08c0-1.1.12-2.24-.37-2.83a13.78,13.78,0,0,0-1.72-1.69l0,0a1.64,1.64,0,0,0-.16-.29,14.58,14.58,0,0,0-1.58-1.79,40.51,40.51,0,0,0-3-3.35A30.83,30.83,0,0,0,96.27,101l.07.13a13.63,13.63,0,0,0,.54,1.6s.05.09.07.14.06.27.1.41c-.65-.43-1.33-.8-1.77-1.07A24.92,24.92,0,0,0,97,104.88a8.52,8.52,0,0,0,.75,1.13l.09.09a6.67,6.67,0,0,0,.37.64.37.37,0,0,0-.15-.06,3.49,3.49,0,0,0-.85-.51c0,.06.31.23.84.51,0,0,0,0,0,0s.1.13.34.27l0,0s0,0,0,0a4.87,4.87,0,0,0,.27.45c.28.41,1,.57,1.65.75l0,0h0a.74.74,0,0,0,.37.25l.14.09-.19,0-.12,0a2,2,0,0,0-1.2-.45l-.14,0c-.91-.56-1.82-1.15-2.56-1-.24,0-.49.1-.74.16l-.25,0a12.05,12.05,0,0,0-1.58.38,1.13,1.13,0,0,0-.26,0,13.75,13.75,0,0,0-2,.4,32.4,32.4,0,0,0-4.61,1,34.63,34.63,0,0,0,4.72,1,13.34,13.34,0,0,0,2.05.42h.19l.28.08c-.69.35-1.34.76-1.79,1a20.47,20.47,0,0,0,3.35-.18l.05,0a8.31,8.31,0,0,0,1.14-.07h.68l-.14.09.19-.09h.1c-.07,0-.11.09-.09.11s.14,0,.35-.13h.11a.32.32,0,0,0,.14,0H99c.51,0,1-.57,1.52-1.07h0a.85.85,0,0,0,.47-.27l.19-.09L101,110c-.5.27-1,.53-1.17.91a.42.42,0,0,1,0,.1c-1,.53-2,1-2.22,1.77a9.93,9.93,0,0,0-.3,1c-.14.4-.26.83-.37,1.27a1.55,1.55,0,0,0-.2.32,13.26,13.26,0,0,0-.72,2.18A37.49,37.49,0,0,0,94.62,122a31.72,31.72,0,0,0,3.43-3.83.35.35,0,0,0,0-.08,13.88,13.88,0,0,0,1.16-1.32l0-.06.28-.26c0,.76,0,1.52,0,2a20.08,20.08,0,0,0,1.54-3l0-.1a8.14,8.14,0,0,0,.49-1l0-.09c.15-.24.29-.47.41-.71,0,.14,0,.22.06.22h0v0a1.52,1.52,0,0,0,0-.48,1.14,1.14,0,0,0,.07-.33l.12-.22a1.66,1.66,0,0,0,0-1,.71.71,0,0,0,.14.29l.06.08c0,1.1-.12,2.23.37,2.83a15.2,15.2,0,0,0,1.71,1.69l0,0a1.43,1.43,0,0,0,.16.3,15.35,15.35,0,0,0,1.58,1.79,40.34,40.34,0,0,0,3,3.34,31.15,31.15,0,0,0-1.57-4.93l-.08-.13a15,15,0,0,0-.53-1.6s0-.08-.07-.13-.06-.28-.1-.41c.65.42,1.33.79,1.77,1.07a24,24,0,0,0-1.71-2.64,8.52,8.52,0,0,0-.75-1.13l-.09-.1a6.5,6.5,0,0,0-.37-.63.38.38,0,0,0,.16,0c.5.34.81.56.84.51s-.31-.23-.84-.51c0,0,0,0,0,0s-.1-.14-.33-.28l0,0,0,0a4,4,0,0,0-.27-.44c-.27-.41-1-.58-1.65-.75l0,0h0a.8.8,0,0,0-.38-.24l-.14-.1.19,0,.13,0a2,2,0,0,0,1.19.45l.15,0a4.41,4.41,0,0,0,2.56,1c.24,0,.49-.1.74-.17h.25a11.69,11.69,0,0,0,1.53-.37h.22a14.13,14.13,0,0,0,2-.4,30.93,30.93,0,0,0,4.67-1,38.14,38.14,0,0,0-4.73-1A15.55,15.55,0,0,0,110.16,107.65Zm-8.24-.7c0,.22,0,.5,0,.81l0-.09a5.35,5.35,0,0,0,0-1.06C101.86,106.72,101.89,106.83,101.92,107Zm.36,4.24c0-.23,0-.5,0-.82a.46.46,0,0,0,0,.09,5.56,5.56,0,0,0,0,1.08C102.34,111.42,102.31,111.31,102.28,111.19Z"/><path class="cls-1" d="M102.1,114.76c.06,0,0-.33,0-.85C102.08,114.43,102.05,114.76,102.1,114.76Z"/><path class="cls-1" d="M107.11,106.36s-.29.13-.71.4C106.85,106.54,107.13,106.41,107.11,106.36Z"/><path class="cls-1" d="M102.1,103.37c-.06,0,0,.33,0,.86C102.13,103.71,102.15,103.37,102.1,103.37Z"/><path class="cls-1" d="M97.09,111.78s.29-.13.71-.4C97.35,111.59,97.07,111.73,97.09,111.78Z"/><path class="cls-1" d="M99.38,119c.11,0,.15-.19.16-.56C99.37,118.77,99.28,119,99.38,119Z"/><path class="cls-1" d="M109.38,116.35c.09-.08-.11-.24-.46-.45C109.14,116.24,109.3,116.43,109.38,116.35Z"/><path class="cls-1" d="M92.15,111.73c0,.1.24,0,.57-.17C92.35,111.58,92.12,111.62,92.15,111.73Z"/><path class="cls-1" d="M112.05,106.41c0-.1-.24,0-.57.16C111.85,106.56,112.08,106.52,112.05,106.41Z"/><path class="cls-1" d="M94.82,101.78c-.09.09.11.24.46.46C95.06,101.9,94.9,101.7,94.82,101.78Z"/><path class="cls-1" d="M104.82,99.13c-.11,0-.15.2-.16.57C104.83,99.37,104.92,99.16,104.82,99.13Z"/><path class="cls-1" d="M59.37,143.62c0,.18.39.13,1,0C59.76,143.47,59.37,143.44,59.37,143.62Z"/><path class="cls-1" d="M83.05,157.37c.14-.08-.06-.37-.44-.79C82.77,157.13,82.91,157.45,83.05,157.37Z"/><path class="cls-1" d="M67.36,129.87c-.15.08,0,.37.44.78C67.64,130.11,67.5,129.79,67.36,129.87Z"/><path class="cls-1" d="M83.13,129.92c-.14-.09-.28.24-.45.8C83.07,130.29,83.28,130,83.13,129.92Z"/><path class="cls-1" d="M67.28,157.32c.14.08.28-.24.45-.8C67.33,157,67.13,157.24,67.28,157.32Z"/><path class="cls-1" d="M90,143.63c.61.13,1,.17,1,0S90.65,143.48,90,143.63Z"/><path class="cls-1" d="M83.26,142.21h-.19l-.27-.08c.68-.35,1.34-.76,1.78-1a20.48,20.48,0,0,0-3.34.19h-.06a7,7,0,0,0-1.14.08H80c-.21,0-.42,0-.63,0l.14-.09-.19.09h-.1c.08-.05.11-.09.1-.12s-.15,0-.35.13h-.11l-.15,0h-.41c-.5,0-1,.57-1.52,1.08h0a.84.84,0,0,0-.48.27l-.19.09.21-.23c.5-.28,1-.54,1.17-.92a.36.36,0,0,0,0-.09c1-.53,2-1,2.23-1.77a305.49,305.49,0,0,1,.66-2.28,1.15,1.15,0,0,0,.21-.33,14.28,14.28,0,0,0,.72-2.18,39.78,39.78,0,0,0,1.36-4.38,32.59,32.59,0,0,0-3.43,3.83l0,.08A14.05,14.05,0,0,0,78,136l0,.06-.28.26c0-.76,0-1.52,0-2a21,21,0,0,0-1.54,3l0,.09a10.08,10.08,0,0,0-.49,1l0,.09c-.14.23-.28.47-.4.7,0-.13,0-.21-.07-.21h0v0a3.63,3.63,0,0,1-.12.8l-.12.22a1.75,1.75,0,0,0,0,1.05.8.8,0,0,0-.13-.28l-.07-.08c0-1.1.12-2.24-.37-2.83a15.2,15.2,0,0,0-1.71-1.69l0,0a1.18,1.18,0,0,0-.16-.29A13.7,13.7,0,0,0,70.85,134a38.81,38.81,0,0,0-3-3.35,31,31,0,0,0,1.58,4.93.54.54,0,0,0,.07.13,12,12,0,0,0,.54,1.6l.06.14c0,.14.07.27.1.41-.64-.42-1.33-.79-1.77-1.07a23.65,23.65,0,0,0,1.72,2.64,9.59,9.59,0,0,0,.74,1.13l.09.09c.12.22.24.44.37.64a.32.32,0,0,0-.15,0c-.5-.34-.82-.56-.85-.51s.31.22.84.51h0s.11.14.34.27l0,0,0,.05.27.44c.28.41,1,.57,1.66.75l0,0h0a.68.68,0,0,0,.37.25l.14.09-.18,0-.13,0a2,2,0,0,0-1.2-.45l-.14,0c-.91-.56-1.82-1.14-2.55-1a6.74,6.74,0,0,0-.75.17,1,1,0,0,0-.25,0,12.05,12.05,0,0,0-1.58.38H67a13.36,13.36,0,0,0-2,.4,32.56,32.56,0,0,0-4.62,1,34.63,34.63,0,0,0,4.72,1,13.34,13.34,0,0,0,2,.42h.19l.28.08c-.69.35-1.34.76-1.78,1a21.66,21.66,0,0,0,3.34-.19h.06a10.37,10.37,0,0,0,1.14-.08h0c.21,0,.42,0,.62,0l-.14.09.19-.09h.1c-.07,0-.1.09-.09.11s.15,0,.35-.13h.11a.4.4,0,0,0,.15,0h.4c.51,0,1-.57,1.53-1.08h0a.84.84,0,0,0,.48-.27l.18-.09-.21.23c-.49.27-1,.53-1.17.91l0,.1c-1,.53-2,1-2.23,1.77-.11.32-.21.66-.3,1a11.77,11.77,0,0,0-.36,1.27,1.26,1.26,0,0,0-.21.32,14.28,14.28,0,0,0-.72,2.18,37.23,37.23,0,0,0-1.36,4.39,32.59,32.59,0,0,0,3.43-3.83l0-.08a11.67,11.67,0,0,0,1.16-1.32l0-.06.28-.26c0,.76,0,1.52,0,2a20,20,0,0,0,1.55-3,.36.36,0,0,0,0-.1,7.46,7.46,0,0,0,.49-1l0-.09a7.24,7.24,0,0,0,.41-.71c0,.14,0,.22.06.22h0v0a1.15,1.15,0,0,0,0-.48.87.87,0,0,0,.06-.32,2.53,2.53,0,0,0,.12-.23,1.66,1.66,0,0,0,0-1,.87.87,0,0,0,.14.29l.07.08c0,1.1-.13,2.23.37,2.83a14.4,14.4,0,0,0,1.71,1.69l0,0a1.4,1.4,0,0,0,.15.3,13.88,13.88,0,0,0,1.59,1.79,37.1,37.1,0,0,0,3,3.34A31.29,31.29,0,0,0,81,151.65l-.07-.12a12,12,0,0,0-.54-1.6.91.91,0,0,0-.07-.14l-.09-.41c.64.42,1.32.79,1.77,1.07a22.77,22.77,0,0,0-1.72-2.64,8.52,8.52,0,0,0-.75-1.13.39.39,0,0,0-.08-.1c-.12-.21-.24-.43-.37-.63a.32.32,0,0,0,.15.05c.5.34.82.56.85.51s-.32-.23-.84-.51h0s-.1-.14-.33-.27l0,0,0-.05-.27-.44c-.28-.41-1-.57-1.66-.75l0,0h0a.76.76,0,0,0-.38-.24l-.14-.09.19,0,.14,0a2,2,0,0,0,1.19.45l.14,0a4.41,4.41,0,0,0,2.56,1c.24-.05.49-.1.74-.17a1,1,0,0,0,.25,0,11.82,11.82,0,0,0,1.54-.37h.21a14.2,14.2,0,0,0,2-.41,32.3,32.3,0,0,0,4.67-1,36.09,36.09,0,0,0-4.72-1A14.43,14.43,0,0,0,83.26,142.21ZM75,141.5c0,.23,0,.5,0,.82l0-.09a6.3,6.3,0,0,0,0-1.07C75,141.27,75,141.38,75,141.5Zm.36,4.24c0-.22,0-.5.05-.81l0,.08a6.42,6.42,0,0,0,0,1.08Z"/><path class="cls-1" d="M75.2,149.31c.06,0,0-.33,0-.85C75.18,149,75.15,149.31,75.2,149.31Z"/><path class="cls-1" d="M80.21,140.91s-.29.13-.71.4C80,141.09,80.24,141,80.21,140.91Z"/><path class="cls-1" d="M75.2,137.93s0,.33,0,.85C75.23,138.26,75.25,137.93,75.2,137.93Z"/><path class="cls-1" d="M70.2,146.33s.28-.13.7-.4C70.45,146.14,70.17,146.28,70.2,146.33Z"/><path class="cls-1" d="M72.49,153.56c.1,0,.14-.2.15-.57C72.47,153.32,72.39,153.53,72.49,153.56Z"/><path class="cls-1" d="M82.49,150.9c.08-.08-.12-.24-.46-.45C82.24,150.79,82.4,151,82.49,150.9Z"/><path class="cls-1" d="M65.25,146.28c0,.1.24,0,.58-.16C65.45,146.13,65.22,146.17,65.25,146.28Z"/><path class="cls-1" d="M85.15,141c0-.1-.24,0-.57.16C85,141.11,85.18,141.07,85.15,141Z"/><path class="cls-1" d="M67.92,136.34c-.08.08.12.24.46.45C68.16,136.45,68,136.25,67.92,136.34Z"/><path class="cls-1" d="M77.92,133.68c-.1,0-.14.2-.16.57C77.94,133.92,78,133.71,77.92,133.68Z"/></g></g></svg>