<svg xmlns="http://www.w3.org/2000/svg" viewBox="0 0 24 24"><defs><style>.cls-1,.cls-5{fill:#ccc;}.cls-2,.cls-3,.cls-4{fill:none;}.cls-2,.cls-3,.cls-4,.cls-5{stroke:#595a5a;stroke-miterlimit:10;stroke-width:0.08px;}.cls-3{stroke-dasharray:0.22 0.22;}.cls-4{stroke-dasharray:0.24 0.24;}.cls-5{stroke-dasharray:0.24;}</style></defs><g id="Layer_2" data-name="Layer 2"><g id="Layer_2-2" data-name="Layer 2"><path class="cls-1" d="M8.4,12.44h.06c.61,0,.72.14.72.75V18c0,.46-.17.63-.62.63H6.47a.5.5,0,0,1-.57-.57v-5c0-.47.16-.63.64-.64h.12c.14-.34.16-.36.53-.36h.7C8.24,12.09,8.28,12.12,8.4,12.44ZM7,12.75H6.48c-.19,0-.28.08-.28.27V18.1c0,.19.08.27.26.27H8.61a.23.23,0,0,0,.27-.27V13c0-.19-.1-.27-.29-.27H8.08l0-.34H7Z"/><path class="cls-1" d="M7.53,15.18l1,.11L6.91,17.36l0,0,.65-1.51h-1l1.11-2.19h0Z"/><path class="cls-1" d="M12.78,12.44h.05c.61,0,.72.14.72.75V18c0,.46-.17.63-.62.63H10.85a.5.5,0,0,1-.57-.57v-5c0-.47.16-.63.63-.64H11c.14-.34.17-.36.54-.36h.69C12.61,12.09,12.65,12.12,12.78,12.44Zm-1.43.31h-.49c-.19,0-.29.08-.29.27,0,1.7,0,3.39,0,5.08,0,.19.08.27.27.27H13c.19,0,.26-.09.26-.27V13c0-.19-.09-.27-.28-.27h-.51l0-.34H11.38Z"/><path class="cls-1" d="M11.9,15.18l1,.11-1.57,2.07,0,0,.66-1.51H11l1.1-2.19h0Z"/><path class="cls-1" d="M17.32,12.44h.06c.61,0,.72.14.72.75V18c0,.46-.17.63-.62.63H15.39a.5.5,0,0,1-.57-.57v-5c0-.47.16-.63.63-.64h.13c.14-.34.16-.36.53-.36h.7C17.15,12.09,17.2,12.12,17.32,12.44Zm-1.43.31H15.4c-.19,0-.28.08-.28.27V18.1c0,.19.07.27.26.27h2.15a.23.23,0,0,0,.27-.27V13c0-.19-.1-.27-.29-.27H17l0-.34H15.92Z"/><path class="cls-1" d="M16.45,15.18l.95.11-1.57,2.07,0,0,.66-1.51h-1l1.11-2.19h0Z"/><path class="cls-1" d="M13.3,6.84H13V6h.31a.13.13,0,0,0,.13-.13.12.12,0,0,0-.13-.12H13V5.6a.28.28,0,0,0-.28-.27h0a.27.27,0,0,0-.27.27v.09a.37.37,0,0,0-.15,0H11.17a.39.39,0,0,0-.39.39v.22h-.53a.19.19,0,0,0,0,.38h.53v.2a.39.39,0,0,0,.39.39h1.12a.33.33,0,0,0,.15,0,.29.29,0,0,0,.27.22h0A.29.29,0,0,0,13,7.15V7.09h.31A.13.13,0,0,0,13.43,7,.12.12,0,0,0,13.3,6.84Z"/><polyline class="cls-1" points="7.29 11.77 7.29 10.01 16.45 10.01 16.45 11.77"/><line class="cls-2" x1="7.29" y1="11.76" x2="7.29" y2="11.65"/><line class="cls-3" x1="7.29" y1="11.43" x2="7.29" y2="10.24"/><polyline class="cls-2" points="7.29 10.13 7.29 10.01 7.41 10.01"/><line class="cls-4" x1="7.65" y1="10.01" x2="16.21" y2="10.01"/><polyline class="cls-2" points="16.33 10.01 16.45 10.01 16.45 10.13"/><line class="cls-3" x1="16.45" y1="10.35" x2="16.45" y2="11.54"/><line class="cls-2" x1="16.45" y1="11.65" x2="16.45" y2="11.76"/><line class="cls-5" x1="11.92" y1="7.6" x2="11.92" y2="11.76"/><path class="cls-1" d="M12,1A11,11,0,1,1,1,12,11,11,0,0,1,12,1m0-1A12,12,0,1,0,24,12,12,12,0,0,0,12,0Z"/></g></g></svg>