<svg xmlns="http://www.w3.org/2000/svg" viewBox="0 0 80 80"><defs><style>.cls-1{fill:#666;}.cls-2{fill:#595a5a;}.cls-3{fill:#fff;}</style></defs><g id="Layer_2" data-name="Layer 2"><g id="Layer_2-2" data-name="Layer 2"><path class="cls-1" d="M40,4A36,36,0,1,1,4,40,36,36,0,0,1,40,4m0-4A40,40,0,1,0,80,40,40,40,0,0,0,40,0Z"/><path class="cls-2" d="M36.21,37.06v6.17h2.65v4.22H36.21v.78H19.94a1.76,1.76,0,0,1-1.77-1.76V41.89h0v-3.6h0V33.82a1.76,1.76,0,0,1,1.77-1.76H36.21v.78h2.65v4.22Z"/><rect class="cls-2" x="18.17" y="38.29" width="0.05" height="3.6"/><rect class="cls-2" x="8.13" y="38.29" width="10.1" height="3.6"/><rect class="cls-2" x="10.68" y="37.96" width="0.69" height="4.29"/><rect class="cls-2" x="11.95" y="37.96" width="0.69" height="4.29"/><rect class="cls-2" x="13.18" y="37.98" width="0.69" height="4.29"/><rect class="cls-2" x="14.4" y="38" width="0.69" height="4.29"/><rect class="cls-2" x="15.63" y="38.02" width="0.69" height="4.29"/><rect class="cls-2" x="16.85" y="38.04" width="0.69" height="4.29"/><rect class="cls-2" x="62.8" y="38.4" width="0.05" height="3.6"/><path class="cls-2" d="M62.8,38.4V42h.05v4.47a1.76,1.76,0,0,1-1.76,1.76H44.81v-.78H42.17V43.23h2.64V37.06H42.17V32.84h2.64v-.78H61.09a1.76,1.76,0,0,1,1.76,1.76V38.4Z"/><rect class="cls-2" x="62.8" y="38.4" width="10.1" height="3.6"/><rect class="cls-2" x="69.66" y="38.04" width="0.69" height="4.29" transform="translate(140.01 80.36) rotate(180)"/><rect class="cls-2" x="68.39" y="38.04" width="0.69" height="4.29" transform="translate(137.46 80.36) rotate(180)"/><rect class="cls-2" x="67.16" y="38.02" width="0.69" height="4.29" transform="translate(135.01 80.33) rotate(180)"/><rect class="cls-2" x="65.94" y="38" width="0.69" height="4.29" transform="translate(132.56 80.29) rotate(180)"/><rect class="cls-2" x="64.71" y="37.98" width="0.69" height="4.29" transform="translate(130.11 80.25) rotate(180)"/><rect class="cls-2" x="63.49" y="37.96" width="0.69" height="4.29" transform="translate(127.66 80.22) rotate(180)"/><path class="cls-2" d="M33.66,45.06v.4H32.14v-.4Z"/><path class="cls-2" d="M33.09,33.45v1.44h1.39v.37H33.09v1.46H32.7V35.26H31.31v-.37H32.7V33.45Z"/><path class="cls-2" d="M47.94,34.85v.4H46.42v-.4Z"/><path class="cls-2" d="M47.38,43.65v1.44h1.39v.37H47.38v1.46H47V45.46H45.59v-.37H47V43.65Z"/><rect class="cls-3" x="29.49" y="35.4" width="5.37" height="1.17"/><rect class="cls-3" x="29.49" y="44.47" width="5.37" height="1.17"/><rect class="cls-3" x="29.49" y="35.4" width="5.37" height="1.17" transform="translate(68.16 3.81) rotate(90)"/><rect class="cls-3" x="45.26" y="44.47" width="5.37" height="1.17"/><rect class="cls-3" x="45.26" y="34.49" width="5.37" height="1.17"/><rect class="cls-3" x="45.26" y="44.47" width="5.37" height="1.17" transform="translate(93 -2.88) rotate(90)"/></g></g></svg>