<svg xmlns="http://www.w3.org/2000/svg" viewBox="0 0 84 84"><defs><style>.cls-1{fill:#595a5a;}.cls-2{fill:none;stroke:#595a5a;stroke-miterlimit:10;stroke-width:4px;}</style></defs><g id="Layer_2" data-name="Layer 2"><g id="Layer_2-2" data-name="Layer 2"><path class="cls-1" d="M30.56,60.68,28,63.16l-2.43-2.54L23,63l-2.44-2.55c.75-.72,1.47-1.46,2.25-2.12a1.7,1.7,0,0,1,1-.27q8.09.16,16.18.39a2.83,2.83,0,0,0,2.24-.88A17.69,17.69,0,0,1,55,52.53a8.78,8.78,0,0,1-.4,17.56,17.89,17.89,0,0,1-12.71-5.88,2.42,2.42,0,0,0-1.46-.7q-3-.18-6-.15a2.63,2.63,0,0,1-2.3-1A20.62,20.62,0,0,0,30.56,60.68Zm28.75-3.84c-.75-.8-1.56-.59-2,.56a10.54,10.54,0,0,0-.15,7.92,1.74,1.74,0,0,0,1.12,1c.38,0,1-.52,1.17-.94a10.42,10.42,0,0,0,.2-8A3,3,0,0,0,59.31,56.84Z"/><path class="cls-1" d="M22.67,24.59a18.84,18.84,0,1,1,8.76,25.14A18.75,18.75,0,0,1,22.67,24.59Zm21.54-1.24A10.48,10.48,0,1,0,49,37.46,10.56,10.56,0,0,0,44.21,23.35Zm-18.47,5a4.78,4.78,0,0,0-.6-1.09c-.21-.23-.61-.28-.93-.42-.09.34-.33.74-.23,1a22.92,22.92,0,0,0,1.35,2.83,1,1,0,0,0,.76.5,1,1,0,0,0,.65-.63A15.49,15.49,0,0,1,34,21.35c.44-.26.81-.53.49-1.08s-.8-.37-1.18-.08a29.23,29.23,0,0,0-4,3.21A48.46,48.46,0,0,0,25.74,28.34Zm29,.14a1.42,1.42,0,0,0-.68-1.8A1.35,1.35,0,0,0,53,29.12,1.45,1.45,0,0,0,54.78,28.48ZM26.89,38.27a1.36,1.36,0,0,0-.57-1.82,1.39,1.39,0,0,0-1.78.52,1.34,1.34,0,1,0,2.35,1.3ZM45.28,21.05a1.38,1.38,0,0,0,1.81-.62,1.45,1.45,0,0,0-.62-1.75,1.41,1.41,0,0,0-1.83.57A1.36,1.36,0,0,0,45.28,21.05Zm-7.49-1.81c-.24-.46-.33-.92-.53-1s-.6.18-.91.3c.12.28.16.69.38.81S37.3,19.33,37.79,19.24Z"/><path class="cls-1" d="M42,39l-3.77.29-1-12.71,3.77-.3Z"/><circle class="cls-2" cx="42" cy="42" r="40"/></g></g></svg>