<svg xmlns="http://www.w3.org/2000/svg" viewBox="0 0 84 84"><defs><style>.cls-1{fill:#595a5a;}.cls-2{fill:none;stroke:#595a5a;stroke-miterlimit:10;stroke-width:4px;}</style></defs><g id="Layer_2" data-name="Layer 2"><g id="Layer_2-2" data-name="Layer 2"><path class="cls-1" d="M40,38.27V33.18H36.81v-.94H17.17A2.13,2.13,0,0,0,15,34.37v5.39h.06v4.35H15v5.52a2.13,2.13,0,0,0,2.13,2.13H36.81v-.94H40V45.73H36.81V38.27ZM33.73,48.41H31.89v-.48h1.84Zm1-12.3H33v1.76h-.47V36.11H30.89v-.45h1.68V33.92H33v1.74h1.68Z"/><rect class="cls-1" x="15.04" y="39.76" width="0.06" height="4.35"/><rect class="cls-1" x="2.91" y="39.76" width="12.19" height="4.35"/><rect class="cls-1" x="5.99" y="39.37" width="0.83" height="5.18"/><rect class="cls-1" x="7.53" y="39.37" width="0.83" height="5.18"/><rect class="cls-1" x="9.01" y="39.39" width="0.83" height="5.18"/><rect class="cls-1" x="10.49" y="39.41" width="0.83" height="5.18"/><rect class="cls-1" x="11.96" y="39.44" width="0.83" height="5.18"/><rect class="cls-1" x="13.44" y="39.46" width="0.83" height="5.18"/><rect class="cls-1" x="68.9" y="39.9" width="0.06" height="4.34"/><path class="cls-1" d="M69,39.9V34.37a2.13,2.13,0,0,0-2.13-2.13H47.19v.94H44v5.09h3.2v7.46H44v5.09h3.2v.94H66.83A2.13,2.13,0,0,0,69,49.63V44.24H68.9V39.9ZM49.13,35.61H51v.49H49.13ZM52,48.42H50.29v1.76h-.48V48.42H48.13V48h1.68V46.23h.48V48H52Z"/><rect class="cls-1" x="68.9" y="39.9" width="12.19" height="4.34"/><rect class="cls-1" x="77.18" y="39.46" width="0.83" height="5.18" transform="translate(155.19 84.09) rotate(180)"/><rect class="cls-1" x="75.64" y="39.46" width="0.83" height="5.18" transform="translate(152.12 84.09) rotate(180)"/><rect class="cls-1" x="74.16" y="39.44" width="0.83" height="5.18" transform="translate(149.16 84.05) rotate(180)"/><rect class="cls-1" x="72.69" y="39.41" width="0.83" height="5.18" transform="translate(146.2 84) rotate(180)"/><rect class="cls-1" x="71.21" y="39.39" width="0.83" height="5.18" transform="translate(143.24 83.96) rotate(180)"/><rect class="cls-1" x="69.73" y="39.37" width="0.83" height="5.18" transform="translate(140.28 83.91) rotate(180)"/><circle class="cls-2" cx="42" cy="42" r="40"/></g></g></svg>