<svg xmlns="http://www.w3.org/2000/svg" viewBox="0 0 153.12 167.62"><defs><style>.cls-1{fill:#595a5a;}.cls-2,.cls-3,.cls-4,.cls-5{fill:none;stroke:#595a5a;stroke-miterlimit:10;stroke-width:4px;}.cls-3{stroke-dasharray:2.72 2.72;}.cls-4{stroke-dasharray:3.02 3.02;}.cls-5{stroke-dasharray:3;}</style></defs><g id="Layer_2" data-name="Layer 2"><g id="Layer_2-2" data-name="Layer 2"><path class="cls-1" d="M31.37,89.34a4.22,4.22,0,0,0,.74.14c7.64.37,9,1.79,9,9.33q0,30.44,0,60.87c0,5.7-2.14,7.89-7.78,7.91q-13.09.06-26.2,0c-4.78,0-7.15-2.38-7.15-7.15q0-31.49,0-63c0-5.84,2-7.86,8-8,.52,0,1-.06,1.52-.09C11.23,85.22,11.57,85,16.21,85c2.91,0,5.82,0,8.73,0C29.29,85,29.84,85.35,31.37,89.34ZM13.46,93.27c-2.14,0-4.15,0-6.15,0-2.42-.08-3.59.92-3.59,3.42q0,31.88,0,63.76c0,2.32,1,3.37,3.33,3.35q13.5-.06,27,0c2.38,0,3.34-1.09,3.34-3.37q0-31.87,0-63.76c0-2.49-1.22-3.49-3.61-3.42-2.09.07-4.17,0-6.38,0L27.1,89H13.81Z"/><path class="cls-1" d="M20.41,123.73l12,1.33-19.73,26-.43-.24,8.21-19h-12l13.87-27.43.41.14C22,110.89,21.19,117.22,20.41,123.73Z"/><path class="cls-1" d="M86.3,89.34a4.22,4.22,0,0,0,.74.14c7.64.37,9,1.79,9,9.33q0,30.44,0,60.87c0,5.7-2.14,7.89-7.77,7.91q-13.11.06-26.2,0c-4.79,0-7.15-2.38-7.15-7.15q0-31.49,0-63c0-5.84,2-7.86,8-8,.52,0,1-.06,1.52-.09C66.16,85.22,66.49,85,71.13,85,74,85,77,85,79.87,85,84.22,85,84.77,85.35,86.3,89.34ZM68.39,93.27c-2.14,0-4.15,0-6.16,0-2.41-.08-3.58.92-3.58,3.42q0,31.88,0,63.76c0,2.32,1,3.37,3.33,3.35q13.49-.06,27,0c2.38,0,3.35-1.09,3.35-3.37q0-31.87,0-63.76c0-2.49-1.22-3.49-3.62-3.42-2.08.07-4.17,0-6.37,0L82,89H68.74Z"/><path class="cls-1" d="M75.34,123.73l12,1.33-19.73,26-.42-.24c2.67-6.18,5.35-12.36,8.21-19h-12l13.87-27.43.42.14C76.87,110.89,76.12,117.22,75.34,123.73Z"/><path class="cls-1" d="M143.34,89.34a4.4,4.4,0,0,0,.74.14c7.64.37,9,1.79,9,9.33q0,30.44,0,60.87c0,5.7-2.14,7.89-7.78,7.91q-13.1.06-26.2,0c-4.78,0-7.14-2.38-7.15-7.15q0-31.49,0-63c0-5.84,2-7.86,8-8,.52,0,1-.06,1.52-.09,1.75-4.19,2.08-4.41,6.72-4.43,2.91,0,5.82,0,8.73,0C141.27,85,141.81,85.35,143.34,89.34Zm-17.91,3.93c-2.13,0-4.14,0-6.15,0-2.42-.08-3.59.92-3.58,3.42q0,31.88,0,63.76c0,2.32,1,3.37,3.32,3.35q13.5-.06,27,0c2.38,0,3.35-1.09,3.35-3.37q0-31.87,0-63.76c0-2.49-1.22-3.49-3.62-3.42-2.08.07-4.17,0-6.37,0l-.3-4.28H125.78Z"/><path class="cls-1" d="M132.38,123.73l12,1.33-19.73,26-.43-.24,8.21-19h-12l13.87-27.43.41.14C133.92,110.89,133.16,117.22,132.38,123.73Z"/><path class="cls-1" d="M92.88,19H88.93V9h3.95a1.59,1.59,0,1,0,0-3.17H88.93V3.43A3.44,3.44,0,0,0,85.5,0h0a3.43,3.43,0,0,0-3.43,3.43V4.58a4.75,4.75,0,0,0-1.81-.36H66.11A4.88,4.88,0,0,0,61.23,9.1v2.77H54.64a2.38,2.38,0,0,0,0,4.75h6.59v2.5A4.88,4.88,0,0,0,66.11,24H80.26a4.93,4.93,0,0,0,1.88-.38,3.42,3.42,0,0,0,3.36,2.75h0A3.43,3.43,0,0,0,88.93,23v-.8h3.95a1.58,1.58,0,1,0,0-3.16Z"/><line class="cls-2" x1="17.45" y1="80.86" x2="17.45" y2="79.36"/><line class="cls-3" x1="17.45" y1="76.64" x2="17.45" y2="61.67"/><polyline class="cls-2" points="17.45 60.31 17.45 58.81 18.95 58.81"/><line class="cls-4" x1="21.98" y1="58.81" x2="129.36" y2="58.81"/><polyline class="cls-2" points="130.87 58.81 132.37 58.81 132.37 60.31"/><line class="cls-3" x1="132.37" y1="63.03" x2="132.37" y2="78"/><line class="cls-2" x1="132.37" y1="79.36" x2="132.37" y2="80.86"/><line class="cls-5" x1="75.5" y1="28.59" x2="75.5" y2="80.86"/></g></g></svg>