<svg xmlns="http://www.w3.org/2000/svg" viewBox="0 0 60.97 80"><defs><style>.cls-1{fill:#595a5a;}</style></defs><g id="Layer_2" data-name="Layer 2"><g id="Layer_2-2" data-name="Layer 2"><path class="cls-1" d="M14.2,66.59l-3.71,3.54L7,66.51,3.47,69.93,0,66.3c1.07-1,2.09-2.08,3.21-3a2.36,2.36,0,0,1,1.45-.38c7.69.16,15.37.33,23.05.55A4,4,0,0,0,30.9,62.2,25.19,25.19,0,0,1,49,55c6.69.07,12.11,6.06,11.94,12.79S55.17,80.24,48.45,80a25.43,25.43,0,0,1-18.09-8.37,3.42,3.42,0,0,0-2.09-1c-2.85-.18-5.72-.25-8.58-.22a3.7,3.7,0,0,1-3.27-1.47C15.81,68.16,15.06,67.49,14.2,66.59Zm40.93-5.47c-1.07-1.13-2.22-.84-2.9.81A15,15,0,0,0,52,73.21a2.47,2.47,0,0,0,1.6,1.47c.54,0,1.4-.73,1.67-1.34a14.94,14.94,0,0,0,.28-11.41A4.76,4.76,0,0,0,55.13,61.12Z"/><path class="cls-1" d="M3,15.22A26.82,26.82,0,1,1,15.43,51,26.72,26.72,0,0,1,3,15.22Zm30.67-1.77a14.92,14.92,0,1,0,6.82,20.09A15,15,0,0,0,33.63,13.45Zm-26.3,7.1A6.68,6.68,0,0,0,6.48,19c-.29-.33-.87-.41-1.33-.6-.12.49-.47,1.06-.32,1.44a33.7,33.7,0,0,0,1.91,4,1.45,1.45,0,0,0,1.09.72,1.43,1.43,0,0,0,.92-.91A22.08,22.08,0,0,1,19.08,10.6c.63-.37,1.14-.75.7-1.54s-1.14-.53-1.68-.12a40.49,40.49,0,0,0-5.71,4.58A69.16,69.16,0,0,0,7.33,20.55Zm41.35.19a2,2,0,0,0-1-2.56,2,2,0,0,0-2.47.89,2,2,0,0,0,.85,2.59A2.06,2.06,0,0,0,48.68,20.74ZM9,34.69a2,2,0,0,0-.82-2.6,2,2,0,0,0-2.52.75,2,2,0,0,0,.72,2.64A2,2,0,0,0,9,34.69ZM35.15,10.17a2,2,0,0,0,2.58-.89,2.06,2.06,0,0,0-.89-2.49,2,2,0,0,0-2.6.82A1.94,1.94,0,0,0,35.15,10.17ZM24.49,7.6c-.34-.67-.48-1.32-.75-1.38s-.86.27-1.3.43c.17.41.23,1,.54,1.16S23.78,7.72,24.49,7.6Z"/><path class="cls-1" d="M30.48,35.72l-5.36.41L23.73,18l5.37-.42Z"/></g></g></svg>