<svg xmlns="http://www.w3.org/2000/svg" viewBox="0 0 184.62 46.1"><defs><style>.cls-1{fill:#595a5a;}</style></defs><g id="Layer_2" data-name="Layer 2"><g id="Layer_2-2" data-name="Layer 2"><path class="cls-1" d="M87.59,14.25v-12H80.05V0H33.67a5,5,0,0,0-5,5V17.76h.14V28h-.14v13a5,5,0,0,0,5,5H80.05V43.87h7.54v-12H80.05V14.25ZM72.77,38.19H68.44V37.05h4.33ZM75.12,9.13h-4v4.16H70V9.13h-4V8.08h4V4h1.12V8.08h4Z"/><rect class="cls-1" x="28.64" y="17.76" width="0.14" height="10.27"/><rect class="cls-1" y="17.76" width="28.78" height="10.27"/><rect class="cls-1" x="7.27" y="16.84" width="1.96" height="12.22"/><rect class="cls-1" x="10.9" y="16.84" width="1.96" height="12.22"/><rect class="cls-1" x="14.39" y="16.89" width="1.96" height="12.22"/><rect class="cls-1" x="17.88" y="16.94" width="1.96" height="12.22"/><rect class="cls-1" x="21.38" y="16.99" width="1.96" height="12.22"/><rect class="cls-1" x="24.87" y="17.05" width="1.96" height="12.22"/><rect class="cls-1" x="155.84" y="18.08" width="0.14" height="10.26"/><path class="cls-1" d="M156,18.08V5a5,5,0,0,0-5-5H104.57V2.23H97v12h7.55v17.6H97v12h7.55V46.1H151a5,5,0,0,0,5-5V28.34h-.14V18.08ZM109.15,8h4.33V9.11h-4.33Zm6.69,30.24h-4v4.15h-1.12V38.21h-4V37.16h4V33h1.12v4.12h4Z"/><rect class="cls-1" x="155.84" y="18.08" width="28.78" height="10.26"/><rect class="cls-1" x="175.4" y="17.05" width="1.96" height="12.22" transform="translate(352.75 46.32) rotate(180)"/><rect class="cls-1" x="171.77" y="17.05" width="1.96" height="12.22" transform="translate(345.49 46.32) rotate(180)"/><rect class="cls-1" x="168.27" y="16.99" width="1.96" height="12.22" transform="translate(338.5 46.21) rotate(180)"/><rect class="cls-1" x="164.78" y="16.94" width="1.96" height="12.22" transform="translate(331.52 46.11) rotate(180)"/><rect class="cls-1" x="161.29" y="16.89" width="1.96" height="12.22" transform="translate(324.53 46) rotate(180)"/><rect class="cls-1" x="157.8" y="16.84" width="1.96" height="12.22" transform="translate(317.55 45.9) rotate(180)"/></g></g></svg>