<svg xmlns="http://www.w3.org/2000/svg" viewBox="0 0 84 84"><defs><style>.cls-1{fill:#595a5a;}.cls-2{fill:none;stroke:#595a5a;stroke-miterlimit:10;stroke-width:4px;}</style></defs><g id="Layer_2" data-name="Layer 2"><g id="Layer_2-2" data-name="Layer 2"><path class="cls-1" d="M46.18,29a2.3,2.3,0,0,0,.28.06c2.86.13,3.38.67,3.38,3.49V55.38c0,2.14-.8,3-2.92,3H37.1a2.37,2.37,0,0,1-2.68-2.68V32.06c0-2.19.76-3,3-3,.19,0,.38,0,.56,0,.66-1.57.78-1.65,2.52-1.66h3.28C45.4,27.38,45.61,27.52,46.18,29Zm-6.72,1.48c-.8,0-1.55,0-2.3,0-.91,0-1.35.34-1.35,1.28q0,12,0,23.9c0,.87.37,1.27,1.25,1.26,3.37,0,6.75,0,10.12,0,.89,0,1.25-.41,1.25-1.26V31.76c0-.94-.45-1.31-1.35-1.28s-1.57,0-2.39,0l-.11-1.6h-5Z"/><path class="cls-1" d="M42.07,41.91l4.49.49-7.4,9.75L39,52.06,42.08,45H37.57l5.2-10.28.16,0Z"/><path class="cls-1" d="M42.1,10.57c7.38,6.67,16,9.7,25.61,10.06,1.52.06,2,.66,2,2.05.68,22-6.89,39.92-26.11,52a2.54,2.54,0,0,1-3.09,0c-14.3-8.77-22.65-21.52-25.25-38-.72-4.59-.59-9.33-.8-14-.06-1.2.29-1.94,1.83-2C26,20.31,34.69,17.28,42.1,10.57ZM16.25,22.74c.24,4.11.22,8,.74,11.85C19.13,50.45,26.58,63.1,40.1,72a3.16,3.16,0,0,0,4,0c15-9.92,22.24-24.15,23.51-41.74.18-2.48,0-5,0-7.51-9.75-.5-18.26-3.45-25.62-9.41C34.61,19.38,26.12,22.19,16.25,22.74Z"/><circle class="cls-2" cx="42" cy="42" r="40"/></g></g></svg>