<svg xmlns="http://www.w3.org/2000/svg" viewBox="0 0 80 80"><defs><style>.cls-1{fill:#666;}.cls-2{fill:#595a5a;}.cls-3{fill:#fff;}</style></defs><g id="Layer_2" data-name="Layer 2"><g id="Layer_2-2" data-name="Layer 2"><path class="cls-1" d="M38.86,37.05V32.84H36.21v-.79H25.49V48.23H36.21v-.79h2.65V43.23H36.21V37.05Zm-4,8.59H29.49V44.47h5.37Zm0-9.07H32.7v.14h.06v2H31.59v-2.1h-2.1V35.39h2.1V33.3h1.17v2.09h2.1Zm19.76,3.09V32.05H44.81v.79H42.17v4.21h2.64v6.18H42.17v4.21h2.64v.79h9.81V40.47H52.53v-.81Zm-4,6H48.53v2.1H47.35v-.82h0V45.64H45.26V44.47h2.12v-.83h0V42.37h1.18v2.1h2.09Zm0-10H45.26V34.49h5.36ZM38.86,37.05V32.84H36.21v-.79H25.49V48.23H36.21v-.79h2.65V43.23H36.21V37.05Zm-4,8.59H29.49V44.47h5.37Zm0-9.07H32.7v.14h.06v2H31.59v-2.1h-2.1V35.39h2.1V33.3h1.17v2.09h2.1Zm19.76,3.09V32.05H44.81v.79H42.17v4.21h2.64v6.18H42.17v4.21h2.64v.79h9.81V40.47H52.53v-.81Zm-4,6H48.53v2.1H47.35v-.82h0V45.64H45.26V44.47h2.12v-.83h0V42.37h1.18v2.1h2.09Zm0-10H45.26V34.49h5.36ZM38.86,37.05V32.84H36.21v-.79H25.49V48.23H36.21v-.79h2.65V43.23H36.21V37.05Zm-4,8.59H29.49V44.47h5.37Zm0-9.07H32.7v.14h.06v2H31.59v-2.1h-2.1V35.39h2.1V33.3h1.17v2.09h2.1Zm19.76,3.09V32.05H44.81v.79H42.17v4.21h2.64v6.18H42.17v4.21h2.64v.79h9.81V40.47H52.53v-.81Zm-4,6H48.53v2.1H47.35v-.82h0V45.64H45.26V44.47h2.12v-.83h0V42.37h1.18v2.1h2.09Zm0-10H45.26V34.49h5.36Zm4,4V32.05H44.81v.79H42.17v4.21h2.64v6.18H42.17v4.21h2.64v.79h9.81V40.47H52.53v-.81Zm-4,6H48.53v2.1H47.35v-.82h0V45.64H45.26V44.47h2.12v-.83h0V42.37h1.18v2.1h2.09Zm0-10H45.26V34.49h5.36ZM38.86,37.05V32.84H36.21v-.79H25.49V48.23H36.21v-.79h2.65V43.23H36.21V37.05Zm-4,8.59H29.49V44.47h5.37Zm0-9.07H32.7v.14h.06v2H31.59v-2.1h-2.1V35.39h2.1V33.3h1.17v2.09h2.1Zm4,.48V32.84H36.21v-.79H25.49V48.23H36.21v-.79h2.65V43.23H36.21V37.05Zm-4,8.59H29.49V44.47h5.37Zm0-9.07H32.7v.14h.06v2H31.59v-2.1h-2.1V35.39h2.1V33.3h1.17v2.09h2.1Zm19.76,3.09V32.05H44.81v.79H42.17v4.21h2.64v6.18H42.17v4.21h2.64v.79h9.81V40.47H52.53v-.81Zm-4,6H48.53v2.1H47.35v-.82h0V45.64H45.26V44.47h2.12v-.83h0V42.37h1.18v2.1h2.09Zm0-10H45.26V34.49h5.36Zm4,4V32.05H44.81v.79H42.17v4.21h2.64v6.18H42.17v4.21h2.64v.79h9.81V40.47H52.53v-.81Zm-4,6H48.53v2.1H47.35v-.82h0V45.64H45.26V44.47h2.12v-.83h0V42.37h1.18v2.1h2.09Zm0-10H45.26V34.49h5.36ZM38.86,37.05V32.84H36.21v-.79H25.49V48.23H36.21v-.79h2.65V43.23H36.21V37.05Zm-4,8.59H29.49V44.47h5.37Zm0-9.07H32.7v.14h.06v2H31.59v-2.1h-2.1V35.39h2.1V33.3h1.17v2.09h2.1Zm4,.48V32.84H36.21v-.79H25.49V48.23H36.21v-.79h2.65V43.23H36.21V37.05Zm-4,8.59H29.49V44.47h5.37Zm0-9.07H32.7v.14h.06v2H31.59v-2.1h-2.1V35.39h2.1V33.3h1.17v2.09h2.1Zm19.76,3.09V32.05H44.81v.79H42.17v4.21h2.64v6.18H42.17v4.21h2.64v.79h9.81V40.47H52.53v-.81Zm-4,6H48.53v2.1H47.35v-.82h0V45.64H45.26V44.47h2.12v-.83h0V42.37h1.18v2.1h2.09Zm0-10H45.26V34.49h5.36Zm4,4V32.05H44.81v.79H42.17v4.21h2.64v6.18H42.17v4.21h2.64v.79h9.81V40.47H52.53v-.81Zm-4,6H48.53v2.1H47.35v-.82h0V45.64H45.26V44.47h2.12v-.83h0V42.37h1.18v2.1h2.09Zm0-10H45.26V34.49h5.36ZM36.21,32.05H25.49V48.23H36.21v-.79h2.65V43.23H36.21V37.05h2.65V32.84H36.21ZM34.86,45.64H29.49V44.47h5.37Zm0-9.07H32.7v.14h.06v2H31.59v-2.1h-2.1V35.39h2.1V33.3h1.17v2.09h2.1ZM40,0A40,40,0,1,0,80,40,40,40,0,0,0,40,0Zm0,76A36,36,0,1,1,76,40,36,36,0,0,1,40,76Zm4.81-43.16H42.17v4.21h2.64v6.18H42.17v4.21h2.64v.79h9.81V40.47H52.53v-.81h2.09V32.05H44.81Zm.45,1.65h5.36v1.17H45.26Zm0,10h2.12v-.83h0V42.37h1.18v2.1h2.09v1.17H48.53v2.1H47.35v-.82h0V45.64H45.26Zm-9-12.42H25.49V48.23H36.21v-.79h2.65V43.23H36.21V37.05h2.65V32.84H36.21ZM34.86,45.64H29.49V44.47h5.37Zm0-9.07H32.7v.14h.06v2H31.59v-2.1h-2.1V35.39h2.1V33.3h1.17v2.09h2.1Zm4,.48V32.84H36.21v-.79H25.49V48.23H36.21v-.79h2.65V43.23H36.21V37.05Zm-4,8.59H29.49V44.47h5.37Zm0-9.07H32.7v.14h.06v2H31.59v-2.1h-2.1V35.39h2.1V33.3h1.17v2.09h2.1Zm19.76,3.09V32.05H44.81v.79H42.17v4.21h2.64v6.18H42.17v4.21h2.64v.79h9.81V40.47H52.53v-.81Zm-4,6H48.53v2.1H47.35v-.82h0V45.64H45.26V44.47h2.12v-.83h0V42.37h1.18v2.1h2.09Zm0-10H45.26V34.49h5.36Zm4,4V32.05H44.81v.79H42.17v4.21h2.64v6.18H42.17v4.21h2.64v.79h9.81V40.47H52.53v-.81Zm-4,6H48.53v2.1H47.35v-.82h0V45.64H45.26V44.47h2.12v-.83h0V42.37h1.18v2.1h2.09Zm0-10H45.26V34.49h5.36ZM38.86,37.05V32.84H36.21v-.79H25.49V48.23H36.21v-.79h2.65V43.23H36.21V37.05Zm-4,8.59H29.49V44.47h5.37Zm0-9.07H32.7v.14h.06v2H31.59v-2.1h-2.1V35.39h2.1V33.3h1.17v2.09h2.1Zm4,.48V32.84H36.21v-.79H25.49V48.23H36.21v-.79h2.65V43.23H36.21V37.05Zm-4,8.59H29.49V44.47h5.37Zm0-9.07H32.7v.14h.06v2H31.59v-2.1h-2.1V35.39h2.1V33.3h1.17v2.09h2.1Zm19.76,3.09V32.05H44.81v.79H42.17v4.21h2.64v6.18H42.17v4.21h2.64v.79h9.81V40.47H52.53v-.81Zm-4,6H48.53v2.1H47.35v-.82h0V45.64H45.26V44.47h2.12v-.83h0V42.37h1.18v2.1h2.09Zm0-10H45.26V34.49h5.36Zm4,4V32.05H44.81v.79H42.17v4.21h2.64v6.18H42.17v4.21h2.64v.79h9.81V40.47H52.53v-.81Zm-4,6H48.53v2.1H47.35v-.82h0V45.64H45.26V44.47h2.12v-.83h0V42.37h1.18v2.1h2.09Zm0-10H45.26V34.49h5.36ZM38.86,37.05V32.84H36.21v-.79H25.49V48.23H36.21v-.79h2.65V43.23H36.21V37.05Zm-4,8.59H29.49V44.47h5.37Zm0-9.07H32.7v.14h.06v2H31.59v-2.1h-2.1V35.39h2.1V33.3h1.17v2.09h2.1Z"/><path class="cls-2" d="M38.86,37.05V32.84H36.21v-.79H19.94a1.77,1.77,0,0,0-1.77,1.77v4.46h0v3.61h0v4.57a1.77,1.77,0,0,0,1.77,1.77H36.21v-.79h2.65V43.23H36.21V37.05Zm-4,8.59H29.49V44.47h5.37Zm0-9.07H32.7v.14h.06v2H31.59v-2.1h-2.1V35.39h2.1V33.3h1.17v2.09h2.1Z"/><rect class="cls-2" x="18.17" y="38.28" width="0.05" height="3.6"/><rect class="cls-2" x="8.13" y="38.28" width="10.09" height="3.61"/><rect class="cls-2" x="10.68" y="37.96" width="0.68" height="4.29"/><rect class="cls-2" x="11.95" y="37.96" width="0.69" height="4.29"/><rect class="cls-2" x="13.18" y="37.98" width="0.68" height="4.29"/><rect class="cls-2" x="14.4" y="38" width="0.69" height="4.29"/><rect class="cls-2" x="15.63" y="38.02" width="0.68" height="4.28"/><rect class="cls-2" x="16.85" y="38.03" width="0.69" height="4.29"/><rect class="cls-2" x="62.8" y="38.4" width="0.05" height="3.6"/><path class="cls-2" d="M62.85,38.4V33.82a1.76,1.76,0,0,0-1.76-1.77H44.81v.79H42.17v4.21h2.64v6.18H42.17v4.21h2.64v.79H61.09a1.76,1.76,0,0,0,1.76-1.77V42H62.8V38.4ZM50.62,45.64H48.53v2.1H47.35v-.82h0V45.64H45.26V44.47h2.12v-.83h0V42.37h1.18v2.1h2.09Zm0-10H45.26V34.49h5.36Z"/><rect class="cls-2" x="62.8" y="38.4" width="10.1" height="3.6"/><rect class="cls-2" x="69.66" y="38.03" width="0.69" height="4.29"/><rect class="cls-2" x="68.39" y="38.03" width="0.69" height="4.29"/><rect class="cls-2" x="67.16" y="38.02" width="0.69" height="4.28"/><rect class="cls-2" x="65.94" y="38" width="0.68" height="4.29"/><rect class="cls-2" x="64.71" y="37.98" width="0.69" height="4.29"/><rect class="cls-2" x="63.49" y="37.96" width="0.68" height="4.29"/><path class="cls-2" d="M33.09,34.89V33.44h-.33v2h.33v-.13h1.39v-.37Zm-1.78,0v.37h.28v-.37Zm1.39,1.68v.14h.39v-.14Z"/><path class="cls-2" d="M47,45.64v1.28h.4V45.64Zm0-2v.83h.4v-.83Z"/><rect class="cls-3" x="32.7" y="36.57" width="0.06" height="0.14"/><rect class="cls-3" x="47.35" y="43.64" width="0.03" height="0.83"/><rect class="cls-3" x="47.35" y="45.64" width="0.03" height="1.28"/></g></g></svg>