<svg xmlns="http://www.w3.org/2000/svg" viewBox="0 0 2231.77 1238.01"><defs><style>.cls-1{fill:#595a5a;}.cls-2{fill:#fff;}.cls-10,.cls-3,.cls-4,.cls-5,.cls-6,.cls-8,.cls-9{fill:none;}.cls-10,.cls-11,.cls-3,.cls-4,.cls-5,.cls-6,.cls-8,.cls-9{stroke:#595a5a;stroke-miterlimit:10;}.cls-4{stroke-dasharray:2.72 2.72;}.cls-5{stroke-dasharray:3.02 3.02;}.cls-6{stroke-dasharray:3;}.cls-11,.cls-7{fill:#ccc;}.cls-10,.cls-11,.cls-8,.cls-9{stroke-width:0.08px;}.cls-9{stroke-dasharray:0.22 0.22;}.cls-10{stroke-dasharray:0.24 0.24;}.cls-11{stroke-dasharray:0.24;}</style></defs><g id="Layer_2" data-name="Layer 2"><path class="cls-1" d="M438.36,166.17,430.17,174l-7.63-8-7.89,7.53-7.65-8c2.35-2.25,4.61-4.59,7.09-6.67a5.18,5.18,0,0,1,3.21-.84q25.45.53,50.9,1.21a8.86,8.86,0,0,0,7-2.75,55.56,55.56,0,0,1,40-15.92C530,140.72,542,154,541.64,168.8s-12.79,27.52-27.63,27c-15.73-.58-29.1-7-40-18.49a7.57,7.57,0,0,0-4.6-2.19c-6.31-.38-12.64-.55-19-.47a8.19,8.19,0,0,1-7.22-3.26C441.92,169.64,440.26,168.16,438.36,166.17Zm90.39-12.07c-2.36-2.5-4.89-1.85-6.4,1.78a33.12,33.12,0,0,0-.5,24.9c.53,1.41,2.27,3.17,3.55,3.26s3.09-1.61,3.68-3a33,33,0,0,0,.63-25.2A11.67,11.67,0,0,0,528.75,154.1Z" transform="translate(-73.09 -5.29)"/><path class="cls-1" d="M413.53,52.71a59,59,0,0,1,78.72-27.79c29.76,14.31,42.31,49.41,28.18,78.84a59.23,59.23,0,1,1-106.9-51.05Zm67.74-3.9c-15.82-7.86-35.89-1.1-43.82,14.76-8.12,16.23-1.51,36.3,14.6,44.33a33,33,0,1,0,29.22-59.09ZM423.18,64.49a15.18,15.18,0,0,0-1.87-3.42c-.65-.73-1.93-.9-2.93-1.32-.27,1.07-1.05,2.33-.73,3.17a78.06,78.06,0,0,0,4.24,8.91,2.28,2.28,0,0,0,4.44-.42c3.74-12.71,11.52-22.18,22.82-28.89,1.38-.82,2.51-1.67,1.54-3.41S448.16,38,447,38.85c-4.3,3.27-9,6.17-12.63,10.1C430.12,53.61,426.91,59.19,423.18,64.49Zm91.32.43a4.48,4.48,0,0,0-2.13-5.66,4.34,4.34,0,0,0-5.46,2,4.29,4.29,0,0,0,1.88,5.71A4.52,4.52,0,0,0,514.5,64.92ZM426.8,95.73A4.3,4.3,0,0,0,425,90a4.37,4.37,0,0,0-5.58,1.64,4.22,4.22,0,1,0,7.38,4.11Zm57.83-54.17a4.3,4.3,0,0,0,5.69-2,4.55,4.55,0,0,0-1.95-5.5,4.44,4.44,0,0,0-5.76,1.81A4.26,4.26,0,0,0,484.63,41.56Zm-23.54-5.67c-.75-1.47-1.06-2.91-1.66-3-.85-.19-1.91.58-2.88.95.37.89.52,2.16,1.19,2.56S459.53,36.15,461.09,35.89Z" transform="translate(-73.09 -5.29)"/><path class="cls-1" d="M474.32,98l-11.85.92-3.06-40L471.26,58C472.28,71.28,473.29,84.46,474.32,98Z" transform="translate(-73.09 -5.29)"/><path class="cls-1" d="M1570.77,85.77v-72h-9V94.05h4.5a5,5,0,0,1,2.52.69c.86-2.95,2.5-5.69,2.63-8.72C1571.2,85.94,1571,85.84,1570.77,85.77Z" transform="translate(-73.09 -5.29)"/><path class="cls-1" d="M1566,122h-4.24v69h9V130.24l.67-.26A16.83,16.83,0,0,1,1566,122Z" transform="translate(-73.09 -5.29)"/><path class="cls-1" d="M1581.42,86c-.13,3-1.77,5.77-2.63,8.72,3.34,2,5.12,7.75,5.12,13.26a21.34,21.34,0,0,1-2.42,10.42c-2.07,3.54-4.44,3.54-5.22,3.54H1576a16.83,16.83,0,0,0,5.43,8,15.92,15.92,0,0,0,7.82-7,30.15,30.15,0,0,0,3.65-15C1592.91,97,1588.38,88.73,1581.42,86Z" transform="translate(-73.09 -5.29)"/><polygon class="cls-1" points="1507.96 73.35 1505.62 52.77 1508.57 50.59 1510.7 69.35 1522.86 60.36 1579.81 18.27 1581.69 20.82 1524.74 62.91 1512.58 71.9 1529.89 79.44 1526.94 81.62 1507.96 73.35"/><path class="cls-1" d="M1979.55,183.24a36.88,36.88,0,0,1-21.32-67V52.72a21.36,21.36,0,1,1,42.72,0v63.61a36.88,36.88,0,0,1-21.4,66.91Zm0-138.62a8.12,8.12,0,0,0-8.12,8.1V123.8l-3.4,1.9a23.63,23.63,0,1,0,23,0l-3.39-1.89V52.72a8.09,8.09,0,0,0-8.1-8.1Z" transform="translate(-73.09 -5.29)"/><rect class="cls-1" x="1902" y="48.46" width="20.45" height="0.63"/><rect class="cls-1" x="1902" y="64.75" width="20.45" height="0.63"/><rect class="cls-1" x="1907.16" y="51.76" width="15.29" height="0.55"/><rect class="cls-1" x="1907.16" y="55.02" width="15.29" height="0.55"/><rect class="cls-1" x="1907.16" y="58.28" width="15.29" height="0.55"/><rect class="cls-1" x="1907.16" y="61.54" width="15.29" height="0.55"/><rect class="cls-1" x="1902" y="81.04" width="20.45" height="0.63"/><rect class="cls-1" x="1907.16" y="68.05" width="15.29" height="0.55"/><rect class="cls-1" x="1907.16" y="71.31" width="15.29" height="0.55"/><rect class="cls-1" x="1907.16" y="74.57" width="15.29" height="0.55"/><rect class="cls-1" x="1907.16" y="77.83" width="15.29" height="0.55"/><rect class="cls-1" x="1902" y="97.33" width="20.45" height="0.63"/><rect class="cls-1" x="1907.16" y="84.34" width="15.29" height="0.55"/><rect class="cls-1" x="1907.16" y="87.6" width="15.29" height="0.55"/><rect class="cls-1" x="1907.16" y="90.86" width="15.29" height="0.55"/><rect class="cls-1" x="1907.16" y="94.12" width="15.29" height="0.55"/><rect class="cls-1" x="1902" y="113.63" width="20.45" height="0.63"/><rect class="cls-1" x="1907.16" y="100.64" width="15.29" height="0.55"/><rect class="cls-1" x="1907.16" y="103.89" width="15.29" height="0.55"/><rect class="cls-1" x="1907.16" y="107.15" width="15.29" height="0.55"/><rect class="cls-1" x="1907.16" y="110.41" width="15.29" height="0.55"/><path class="cls-1" d="M2020.05,52.79a14.17,14.17,0,1,1,14.16-14.17A14.18,14.18,0,0,1,2020.05,52.79Zm0-21.85a7.68,7.68,0,1,0,7.67,7.68A7.69,7.69,0,0,0,2020.05,30.94Z" transform="translate(-73.09 -5.29)"/><path class="cls-1" d="M2069.79,118.07c-3.12,1.56-9.36,3.12-17.36,3.12-18.52,0-32.46-11.7-32.46-33.25,0-20.57,13.94-34.51,34.32-34.51,8.19,0,13.35,1.76,15.6,2.93l-2,6.92a30.91,30.91,0,0,0-13.26-2.73c-15.4,0-25.64,9.85-25.64,27.1,0,16.09,9.26,26.42,25.25,26.42a33.87,33.87,0,0,0,13.84-2.73Z" transform="translate(-73.09 -5.29)"/><path class="cls-1" d="M890.86,127.22l-8.72,26.4H870.93l28.52-83.95h13.08l28.65,84H929.59l-9-26.4Zm27.52-8.47-8.22-24.17c-1.86-5.48-3.11-10.46-4.36-15.32h-.25c-1.24,5-2.61,10.09-4.23,15.2l-8.22,24.29Z" transform="translate(-73.09 -5.29)"/><path class="cls-1" d="M954,52.26c-15.86-19.23-31.43-29-46.27-29s-30.41,9.74-46.27,29L847.52,40.8C867,17.24,887.21,5.29,907.68,5.29h0c20.47,0,40.71,11.94,60.15,35.51Z" transform="translate(-73.09 -5.29)"/><path class="cls-1" d="M1338.78,150.69l-25.26-77.4h10.79l12.06,38.12c3.33,10.45,6.2,19.87,8.27,28.94h.23c2.18-9,5.4-18.72,8.84-28.82l13.09-38.24h10.68l-27.67,77.4Z" transform="translate(-73.09 -5.29)"/><path class="cls-1" d="M1391.54,54.09c-15.86-19.22-31.43-29-46.27-29s-30.41,9.75-46.27,29l-13.88-11.46c19.44-23.56,39.68-35.51,60.15-35.51s40.71,12,60.16,35.51Z" transform="translate(-73.09 -5.29)"/><path class="cls-1" d="M1806.67,30.2a8.77,8.77,0,0,0,1.39.27c14.44.69,17.06,3.37,17.07,17.62q0,57.48,0,115c0,10.77-4,14.91-14.69,14.95q-24.75.09-49.49,0c-9,0-13.5-4.5-13.51-13.5q0-59.49,0-119c0-11,3.83-14.85,15-15,1,0,2-.12,2.87-.17,3.31-7.91,3.93-8.33,12.69-8.37,5.5,0,11,0,16.5,0C1802.75,22,1803.78,22.66,1806.67,30.2Zm-33.83,7.41c-4,0-7.83.11-11.63,0-4.56-.17-6.77,1.73-6.76,6.45q.08,60.22,0,120.44c0,4.38,1.83,6.36,6.29,6.34q25.48-.13,51,0c4.49,0,6.32-2.06,6.32-6.36q0-60.23,0-120.44c0-4.7-2.31-6.59-6.83-6.45-3.94.12-7.88,0-12,0l-.56-8.08h-25.1C1773.28,32.28,1773.08,34.72,1772.84,37.61Z" transform="translate(-73.09 -5.29)"/><path class="cls-1" d="M1786,95.16l22.62,2.5-37.27,49.11-.8-.46L1786,110.49h-22.72c9.07-17.92,17.63-34.87,26.2-51.81l.79.27C1788.87,70.9,1787.44,82.85,1786,95.16Z" transform="translate(-73.09 -5.29)"/><path class="cls-1" d="M1292.51,544a5.4,5.4,0,0,0,.74.14c7.64.37,9,1.79,9,9.33q0,30.43,0,60.87c0,5.7-2.14,7.89-7.78,7.91q-13.1,0-26.2,0c-4.78,0-7.15-2.38-7.15-7.15q0-31.49,0-63c0-5.85,2-7.86,8-8,.52,0,1,0,1.52-.08,1.74-4.19,2.08-4.42,6.71-4.44h8.74C1290.43,539.61,1291,540,1292.51,544Zm-17.91,3.92c-2.14,0-4.15.06-6.16,0-2.41-.09-3.58.92-3.58,3.41q0,31.89,0,63.76c0,2.33,1,3.37,3.33,3.36q13.5-.06,27,0c2.38,0,3.34-1.09,3.34-3.37q0-31.87,0-63.75c0-2.5-1.22-3.49-3.61-3.42-2.09.06-4.18,0-6.38,0l-.29-4.27H1275Z" transform="translate(-73.09 -5.29)"/><path class="cls-1" d="M1281.55,578.36l12,1.32-19.73,26-.43-.24c2.68-6.18,5.35-12.36,8.21-19h-12L1283.43,559l.41.15C1283.09,565.52,1282.33,571.84,1281.55,578.36Z" transform="translate(-73.09 -5.29)"/><path class="cls-1" d="M1347.44,544a5.55,5.55,0,0,0,.73.14c7.65.37,9,1.79,9,9.33q0,30.43,0,60.87c0,5.7-2.14,7.89-7.77,7.91q-13.11,0-26.2,0c-4.79,0-7.15-2.38-7.15-7.15q0-31.49,0-63c0-5.85,2-7.86,8-8,.52,0,1,0,1.52-.08,1.75-4.19,2.08-4.42,6.72-4.44H1341C1345.36,539.61,1345.91,540,1347.44,544Zm-17.92,3.92c-2.13,0-4.14.06-6.15,0-2.41-.09-3.58.92-3.58,3.41q0,31.89,0,63.76c0,2.33,1,3.37,3.33,3.36q13.49-.06,27,0c2.38,0,3.35-1.09,3.35-3.37q0-31.87,0-63.75c0-2.5-1.22-3.49-3.62-3.42-2.08.06-4.17,0-6.37,0l-.3-4.27h-13.28Z" transform="translate(-73.09 -5.29)"/><path class="cls-1" d="M1336.48,578.36l12,1.32-19.73,26-.42-.24c2.67-6.18,5.35-12.36,8.21-19h-12L1338.35,559l.42.15C1338,565.52,1337.26,571.84,1336.48,578.36Z" transform="translate(-73.09 -5.29)"/><path class="cls-1" d="M1404.48,544a5.7,5.7,0,0,0,.74.14c7.64.37,9,1.79,9,9.33q0,30.43,0,60.87c0,5.7-2.14,7.89-7.78,7.91q-13.1,0-26.2,0c-4.78,0-7.14-2.38-7.15-7.15q0-31.49,0-63c0-5.85,2-7.86,8-8,.52,0,1,0,1.52-.08,1.75-4.19,2.08-4.42,6.72-4.44h8.73C1402.41,539.61,1403,540,1404.48,544Zm-17.91,3.92c-2.13,0-4.15.06-6.15,0-2.42-.09-3.59.92-3.58,3.41q0,31.89,0,63.76c0,2.33,1,3.37,3.33,3.36q13.5-.06,27,0c2.38,0,3.35-1.09,3.35-3.37q0-31.87,0-63.75c0-2.5-1.22-3.49-3.62-3.42-2.09.06-4.17,0-6.37,0l-.3-4.27h-13.29Z" transform="translate(-73.09 -5.29)"/><path class="cls-1" d="M1393.52,578.36l12,1.32-19.73,26-.43-.24c2.68-6.18,5.35-12.36,8.21-19h-12L1395.4,559l.41.15C1395.06,565.52,1394.3,571.84,1393.52,578.36Z" transform="translate(-73.09 -5.29)"/><path class="cls-1" d="M2273.44,163.63c6.71,11.7,7.41,15.4,2.58,18.06-9.42,5.19-11.48-4.48-16.07-8.67-25,9.89-35.42,9.89-61.49,0-4.5,4.42-7.24,14.57-16,8.44s.3-12.08,2.64-17.84c-31.73-31.34-24.28-74.31-.47-96.17a65.6,65.6,0,0,1,89.33.09C2297.68,89.49,2305.06,132.44,2273.44,163.63Zm2-48.23a46.63,46.63,0,0,0-46.3-46.56c-25,0-46.08,21.11-46.11,46.24s20.87,46.1,46.07,46.22S2275.32,140.54,2275.43,115.4Z" transform="translate(-73.09 -5.29)"/><path class="cls-1" d="M2153.22,55c1-13.13,9.07-24.49,21.05-28.63,12.14-4.19,25.66-.37,33.28,9.42,4.34,5.59,3.6,8.23-3.1,10.23a64.54,64.54,0,0,0-35.23,25c-3.59,5-7.09,5.1-10-.41C2156.66,65.71,2155.18,60.22,2153.22,55Z" transform="translate(-73.09 -5.29)"/><path class="cls-1" d="M2304.86,54.19c-1.94,5.44-3.38,11.12-6,16.24-2.69,5.34-6.18,5.37-9.62.61a65.65,65.65,0,0,0-36.86-25.52c-5.13-1.42-5.86-4.05-2.77-8.59,6.87-10.08,20.51-14.68,32.8-11.07S2303.24,40.66,2304.86,54.19Z" transform="translate(-73.09 -5.29)"/><path class="cls-1" d="M2235.74,96c-.25,4-.33,6.62-.6,9.18-.5,4.93,1.79,8.48,5.65,11.06,4.42,3,9,5.76,13.58,8.45,3.61,2.12,5.15,5.06,3,8.69s-5.43,3.23-8.67,1.17-6.09-4.23-9.41-5.73a37.38,37.38,0,0,0-10.54-3.17c-5.92-.75-11-6.76-8.06-11.73,4.54-7.77,2.85-16,3.82-24a8.06,8.06,0,0,0,0-1.1c-.06-4,1.34-7.1,5.87-7s5.58,3.4,5.42,7.36C2235.66,92,2235.74,94.74,2235.74,96Z" transform="translate(-73.09 -5.29)"/><path class="cls-1" d="M996.91,334.1v20.79H818.57V334.1h20.26a19.81,19.81,0,0,1,39.46,0h7.44a19.81,19.81,0,0,1,39.47,0h12a19.81,19.81,0,0,1,39.46,0Z" transform="translate(-73.09 -5.29)"/><path class="cls-1" d="M1184.85,345.61q-29.68-45.93-59.46-91.81c-1.08-1.66-2.8-2.9-4.23-4.34h-2.92L1067,282.94c-4.86,3.18-5.34,5.3-2.19,10.18q9.6,14.86,19.22,29.72l42.86,66.1c1.59-.11,3.19-.06,4.8-.2-.43,0,.23-.16,1.11-.36,16.64-11.57,33.34-22.45,50-33.34C1187,352.31,1187.55,349.78,1184.85,345.61Z" transform="translate(-73.09 -5.29)"/><path class="cls-1" d="M1038.61,317.4c.17-.83.07-1.9.56-2.43a33.42,33.42,0,0,1,3.77-3.1c1,1.29,2.86,2.54,2.94,3.88.3,5.46.18,10.95,0,16.42a3.6,3.6,0,0,0,2.64,4.06c4.63,1.84,9.12,4,13.76,5.85,2.66,1,3.77,2.62,3.65,5.49-.2,5.11,0,10.23-.24,15.33-.09,2.21.69,3.26,2.68,4.05,4.75,1.88,9.4,4,14.1,6,2.35,1,4.23,2.4,3,5.23s-3.49,2.42-5.85,1.39c-5.79-2.54-11.57-5.09-17.42-7.47a5.15,5.15,0,0,1-3.64-5.58c.2-5.1.11-10.22.32-15.33a3.39,3.39,0,0,0-2.46-3.82c-4.62-1.84-9.2-3.83-13.71-5.92a28.53,28.53,0,0,1-4.09-2.84Z" transform="translate(-73.09 -5.29)"/><path class="cls-1" d="M1213.94,326.17c-.17,1.07,0,2.38-.58,3.16a24,24,0,0,1-3.56,3.33c-1.09-1.24-3-2.42-3.12-3.72a138.84,138.84,0,0,1,0-15.67c.14-2.82-.56-4.37-3.4-5.39-4.57-1.62-8.9-3.88-13.41-5.68a4.61,4.61,0,0,1-3.25-5c.15-4.74-.11-9.5.26-14.22.25-3.18-.72-4.8-3.75-5.89-4.45-1.6-8.7-3.74-13.06-5.59-2.37-1-4.21-2.38-3-5.2s3.5-2.42,5.85-1.39c5.78,2.54,11.54,5.13,17.39,7.48,2.84,1.14,3.8,3,3.66,5.9-.23,4.85-.08,9.73-.31,14.58-.11,2.26.47,3.49,2.72,4.34,4.54,1.72,9,3.74,13.36,5.78a33,33,0,0,1,4.19,2.73Z" transform="translate(-73.09 -5.29)"/><path class="cls-1" d="M1177.66,296c0,3.51-1.24,7.81.35,10.31s6,3.17,9.18,4.64c12.43,5.72,10,1.93,10.08,15.71,0,4.13,0,8.26-.06,12.39,0,2.38-.87,4.1-3.51,4.13s-3.6-1.73-3.59-4.07c0-5.35.06-10.7.28-16,.08-2.13-.54-3.3-2.59-4.11-4.74-1.86-9.35-4.06-14.07-6-2.58-1.05-3.78-2.68-3.66-5.55.21-5.1.11-10.21.32-15.31a3.36,3.36,0,0,0-2.41-3.83c-4.84-1.94-9.58-4.13-14.39-6.16-2.42-1-4.12-2.53-2.87-5.27,1.16-2.56,3.38-2.32,5.61-1.36,5.9,2.56,11.77,5.18,17.73,7.61,2.67,1.08,3.72,2.77,3.5,5.6-.18,2.42,0,4.86,0,7.29Z" transform="translate(-73.09 -5.29)"/><path class="cls-1" d="M1075,347.08c2.67-7.42-2-10.73-9.39-13.67-12.92-5.13-10.26-1.83-10.35-15.77,0-4,.07-8,0-12,0-2.54.86-4.39,3.69-4.33,2.63.06,3.44,1.92,3.42,4.25-.06,5.1,0,10.22-.28,15.31-.14,2.56.56,3.93,3.08,4.86,4.31,1.61,8.39,3.87,12.72,5.41,3.63,1.29,4.8,3.5,4.54,7.18-.32,4.48-.08,9-.35,13.49-.15,2.42.52,3.72,2.89,4.62,4.75,1.82,9.36,4,14.06,6,2.32,1,3.82,2.48,2.82,5s-3.22,2.62-5.49,1.64c-6.14-2.63-12.25-5.3-18.39-7.92a4.45,4.45,0,0,1-3-4.8C1075.12,353.67,1075,351,1075,347.08Z" transform="translate(-73.09 -5.29)"/><path class="cls-1" d="M1345.65,241.21c-45.67.22-83.28,38.14-83,83.64.29,47.33,39.25,84.57,86.75,83.46,43.24-1,80.81-39.09,80.51-83.23C1429.57,278.14,1392.25,241,1345.65,241.21Zm-2,164.14c-44.67-1.86-79.74-39.16-78.19-82.83,1.57-44.49,38.84-80.3,84.47-78.4,44,1.84,79.21,40.15,77.11,84.23S1387.25,407.16,1343.63,405.35Z" transform="translate(-73.09 -5.29)"/><path class="cls-1" d="M1427,328.35c-2.09,44-39.77,78.81-83.39,77-44.67-1.86-79.74-39.16-78.19-82.83,1.57-44.49,38.84-80.3,84.47-78.4C1394,246,1429.12,284.27,1427,328.35Z" transform="translate(-73.09 -5.29)"/><path class="cls-2" d="M1346.62,275.35c5.79,9.7,12.2,19.71,17.84,30.13a20.54,20.54,0,0,1-4.88,25.79,20.26,20.26,0,0,1-25.37.27,20.72,20.72,0,0,1-5.37-26.12C1334.45,295,1340.86,285,1346.62,275.35Zm-3.94,16.89c-12,13-17.68,27.12-4.53,36.48C1328.86,314.57,1337.68,303.69,1342.68,292.24Z" transform="translate(-73.09 -5.29)"/><path class="cls-2" d="M1312.59,352.76v31.15h-4V352.76Z" transform="translate(-73.09 -5.29)"/><path class="cls-2" d="M1319.61,353.13a45.89,45.89,0,0,1,7.72-.6c4,0,6.89.92,8.73,2.59a8.35,8.35,0,0,1,2.73,6.51,9.19,9.19,0,0,1-2.4,6.66c-2.13,2.26-5.59,3.42-9.52,3.42a14,14,0,0,1-3.24-.28v12.48h-4Zm4,15a13.59,13.59,0,0,0,3.33.32c4.85,0,7.81-2.35,7.81-6.65,0-4.12-2.91-6.1-7.35-6.1a16.64,16.64,0,0,0-3.79.32Z" transform="translate(-73.09 -5.29)"/><path class="cls-2" d="M1359.91,356.73a14.83,14.83,0,0,0-3.05.19,12.22,12.22,0,0,0-10.45,10.67h.14a9,9,0,0,1,7.26-3.46c5.32,0,9.06,3.83,9.06,9.7,0,5.5-3.74,10.59-10,10.59-6.43,0-10.63-5-10.63-12.8,0-5.92,2.12-10.59,5.08-13.55a16.33,16.33,0,0,1,9.61-4.43,19.07,19.07,0,0,1,3-.24Zm-1.15,17.33c0-4.29-2.45-6.88-6.2-6.88a6.68,6.68,0,0,0-5.82,3.7,3.42,3.42,0,0,0-.46,1.8c.09,4.94,2.35,8.59,6.61,8.59C1356.4,381.27,1358.76,378.36,1358.76,374.06Z" transform="translate(-73.09 -5.29)"/><path class="cls-2" d="M1386,353.87v2.68l-13.07,27.36h-4.21l13-26.58v-.09H1367v-3.37Z" transform="translate(-73.09 -5.29)"/><path class="cls-1" d="M1787.77,309.14l41.45,4.59-68.28,90-1.47-.83c9.26-21.38,18.52-42.77,28.41-65.63h-41.61l48-94.92,1.43.5C1793.08,264.71,1790.47,286.6,1787.77,309.14Z" transform="translate(-73.09 -5.29)"/><path class="cls-1" d="M1597.31,409q-9.94-39.63-19.85-79.28c-1.35-5.38,1.33-11.63,1.06-17.42-.27-5.27-.41-12.11-3.57-15.22-2.57-2.49-11.6-2.44-14.09.08-3.11,3.16-3.11,10-3.33,15.3s2.46,11.17,1.22,16.12q-10.07,40.2-20.12,80.42H1555a4.8,4.8,0,0,0-.37-.44h29.31c-.17.14-.3.3-.46.44Zm-29.45-85c1.65,13.39,16.15,26.56.11,40.89C1552.07,350.38,1566.75,337.3,1567.86,324ZM1550,401.41l17.79-24.55c6.16,8.16,11.6,15.33,18.6,24.55Z" transform="translate(-73.09 -5.29)"/><path class="cls-1" d="M1530.54,256.07c-31.49,34.47-31,66.7-1.6,99.07-13.42-1.61-25.73-20.44-27.5-40.18C1499,287.61,1510,262.53,1530.54,256.07Z" transform="translate(-73.09 -5.29)"/><path class="cls-1" d="M1606.66,355.61c30-32.91,30.08-65.48-.28-98.7,17.32,4.08,28.95,26.52,28.54,50.91C1634.53,331.18,1622.77,352.38,1606.66,355.61Z" transform="translate(-73.09 -5.29)"/><path class="cls-1" d="M1534.51,347.33c-15-11.15-20.32-25.77-19.88-43.17.41-15.94,6.75-28.6,20.48-39.81-5.37,15.66-13.36,28.88-13.46,42.15C1521.55,319.49,1529.5,332.53,1534.51,347.33Z" transform="translate(-73.09 -5.29)"/><path class="cls-1" d="M1600.12,345c25.08-42.6,16.75-49-.39-77,11.57,1.93,20.75,16.74,21.53,34.75C1622.19,324.24,1613.64,341.34,1600.12,345Z" transform="translate(-73.09 -5.29)"/><path class="cls-1" d="M1545.23,336.78c-13.74-6.47-17.59-17.81-17.62-30.4s4-24,17.65-30.5C1529.45,296.26,1529.09,316.37,1545.23,336.78Z" transform="translate(-73.09 -5.29)"/><path class="cls-1" d="M1589.1,335.74c18.2-19.85,16.55-39.63,1-59.63,15.11,7.31,20.59,20.67,17.51,38.31C1605.42,327,1599.93,333.93,1589.1,335.74Z" transform="translate(-73.09 -5.29)"/><path class="cls-1" d="M1548.84,289.67v33.38A20.06,20.06,0,0,1,1548.84,289.67Z" transform="translate(-73.09 -5.29)"/><path class="cls-1" d="M1587.07,323.49V289.72l1.65-1.6c2.34,5.54,6.6,11.1,6.55,16.62-.06,6.7-3.76,13.36-5.88,20Z" transform="translate(-73.09 -5.29)"/><path class="cls-1" d="M1663.55,269c-.16.38-.33.75-.52,1.12V269Z" transform="translate(-73.09 -5.29)"/><path class="cls-1" d="M1663.55,269c-.16.38-.33.75-.52,1.12V269Z" transform="translate(-73.09 -5.29)"/><path class="cls-1" d="M264.64,598.42c-14.87-17.88-33.09-28.87-55.54-33V531.93c22-4.19,40.57-14.9,55.54-33.18Z" transform="translate(-73.09 -5.29)"/><path class="cls-1" d="M281.94,548.25v53a33.14,33.14,0,0,1-.07,4c-.41,3.29-2.44,5.28-5.65,5.17s-5.31-2-5.35-5.41c-.07-5.67,0-11.33,0-17V498c0-1,0-2,0-3,0-5.6,1.93-8.58,5.65-8.2,5.12.53,5.5,4.34,5.48,8.47-.08,13.16,0,26.32,0,39.48Z" transform="translate(-73.09 -5.29)"/><path class="cls-1" d="M202.72,565.51c-7.84,0-15.16.31-22.44-.07-9.74-.51-16.68-8.05-16.45-17.24.22-9.37,7.76-16.38,17.78-16.43,6.66,0,13.32,0,20,.08.29,0,.58.23,1.13.46Z" transform="translate(-73.09 -5.29)"/><path class="cls-1" d="M327,549.08c-.38,13.23-4.6,25.23-13.87,35.14-1.21,1.31-3.77,1.35-5.71,2,.56-1.84.62-4.1,1.76-5.45,16.58-19.54,16.43-45.15-.38-64.66-1-1.2-1-3.37-1.42-5.08,1.83.49,4.29.39,5.39,1.57C322.28,522.74,326.76,535,327,549.08Z" transform="translate(-73.09 -5.29)"/><path class="cls-1" d="M315.69,548.41c-.13,10.73-3.43,20.3-10.81,28.17-1.12,1.19-3.54,1.16-5.36,1.69.42-1.7.35-3.81,1.35-5,12.61-15.49,12.53-33.87-.2-49.3-1-1.17-.72-3.36-1-5.07,1.69.46,3.93.39,5,1.48C312,528.16,315.46,537.68,315.69,548.41Z" transform="translate(-73.09 -5.29)"/><path class="cls-1" d="M304.26,550.6c.06,6.11-2.5,12.66-7.45,18.14-1.05,1.15-3.29,1.23-5,1.8.24-1.69-.11-3.82.79-5,8.49-11.13,8.48-22.57,0-33.75-.91-1.21-.58-3.36-.82-5.08,1.66.52,3.83.53,4.9,1.62C301.82,533.58,304.48,541.4,304.26,550.6Z" transform="translate(-73.09 -5.29)"/><path class="cls-1" d="M2149.05,329l-10.79,3.52V331l5.32-1.68c1.45-.47,2.77-.87,4-1.16v0c-1.25-.3-2.61-.75-4-1.23l-5.33-1.83v-1.49l10.79,3.86Z" transform="translate(-73.09 -5.29)"/><path class="cls-1" d="M2145.11,316a3.79,3.79,0,0,1,4.12,3.86,3.69,3.69,0,0,1-4,3.72,3.78,3.78,0,0,1-4.11-3.85A3.67,3.67,0,0,1,2145.11,316Zm.08,6.15c1.7,0,3-1,3-2.35s-1.26-2.35-3-2.35c-1.31,0-3,.65-3,2.32S2143.72,322.17,2145.19,322.17Z" transform="translate(-73.09 -5.29)"/><path class="cls-1" d="M2137.69,314.25v-1.41h11.36v1.41Z" transform="translate(-73.09 -5.29)"/><path class="cls-1" d="M2139.08,308.78h2.22v-2h1.08v2h4.17c1,0,1.51-.27,1.51-1.06a3,3,0,0,0-.1-.81l1.06-.07a3.56,3.56,0,0,1,.19,1.25,2,2,0,0,1-.59,1.52,2.89,2.89,0,0,1-2,.55h-4.22v1.2h-1.08v-1.2h-1.85Z" transform="translate(-73.09 -5.29)"/><path class="cls-1" d="M2149.05,300.89l-1,.11v.05a2.91,2.91,0,0,1,1.15,2.37,2.21,2.21,0,0,1-2.23,2.37c-1.87,0-2.89-1.67-2.88-4.66H2144a1.6,1.6,0,0,0-1.79,1.76,3.79,3.79,0,0,0,.58,2l-.93.32a4.78,4.78,0,0,1-.69-2.55c0-2.36,1.62-2.94,3.17-2.94h2.9a10.45,10.45,0,0,0,1.85-.13Zm-4,.21c0,1.54.24,3.28,1.74,3.28a1.25,1.25,0,0,0,1.35-1.33,1.92,1.92,0,0,0-1.3-1.87,1.38,1.38,0,0,0-.45-.08Z" transform="translate(-73.09 -5.29)"/><path class="cls-1" d="M2141.3,290.79c.57,0,1.19.07,2.13.07h4.5c1.78,0,2.87.35,3.54,1.1a4.13,4.13,0,0,1,.93,2.82,5.08,5.08,0,0,1-.64,2.58l-1.08-.36a4.26,4.26,0,0,0,.61-2.27c0-1.44-.75-2.49-2.7-2.49h-.87v0a2.76,2.76,0,0,1,1.3,2.46c0,1.92-1.63,3.3-3.78,3.3-2.62,0-4.11-1.71-4.11-3.49a2.59,2.59,0,0,1,1.34-2.42v0l-1.17-.06Zm3.06,1.46a2.12,2.12,0,0,0-.64.08,2,2,0,0,0-1.49,2c0,1.34,1.14,2.3,2.93,2.3,1.52,0,2.79-.76,2.79-2.28a2.08,2.08,0,0,0-1.44-2,2.48,2.48,0,0,0-.75-.11Z" transform="translate(-73.09 -5.29)"/><path class="cls-1" d="M2145.43,287.74a2.48,2.48,0,0,0,2.69-2.66,5,5,0,0,0-.4-2.14l1-.24a6.18,6.18,0,0,1,.48,2.58,3.6,3.6,0,0,1-3.9,3.81c-2.34,0-4.18-1.38-4.18-3.64,0-2.53,2.22-3.2,3.65-3.2a4.38,4.38,0,0,1,.65.05Zm-1-4.13a2,2,0,0,0-2.29,1.95,2.34,2.34,0,0,0,2.29,2.17Z" transform="translate(-73.09 -5.29)"/><rect class="cls-1" x="2083.82" y="294.94" width="103.54" height="3.76"/><path class="cls-1" d="M2209.36,373.63h-3.28v-1.19h8v1.19h-3.3v9.6h-1.41Z" transform="translate(-73.09 -5.29)"/><path class="cls-1" d="M2216.6,373.31a.88.88,0,0,1-1.75,0,.87.87,0,0,1,.88-.89A.85.85,0,0,1,2216.6,373.31Zm-1.57,9.92v-7.75h1.4v7.75Z" transform="translate(-73.09 -5.29)"/><path class="cls-1" d="M2218.77,377.58c0-.8,0-1.46-.06-2.1h1.23l.06,1.25h.05a2.65,2.65,0,0,1,2.43-1.42,2.3,2.3,0,0,1,2.2,1.55h0a3.21,3.21,0,0,1,.86-1,2.68,2.68,0,0,1,1.72-.54c1,0,2.54.67,2.54,3.36v4.56h-1.38v-4.39c0-1.48-.54-2.38-1.68-2.38a1.82,1.82,0,0,0-1.66,1.28,2.45,2.45,0,0,0-.11.7v4.79h-1.38v-4.64c0-1.23-.54-2.13-1.62-2.13a1.91,1.91,0,0,0-1.74,1.41,2,2,0,0,0-.11.69v4.67h-1.38Z" transform="translate(-73.09 -5.29)"/><path class="cls-1" d="M2232.9,379.61a2.48,2.48,0,0,0,2.66,2.69,5.17,5.17,0,0,0,2.14-.4l.24,1a6.35,6.35,0,0,1-2.58.48,3.6,3.6,0,0,1-3.81-3.91c0-2.33,1.38-4.17,3.64-4.17,2.53,0,3.2,2.22,3.2,3.65a4.51,4.51,0,0,1,0,.65Zm4.13-1a2,2,0,0,0-2-2.29,2.35,2.35,0,0,0-2.17,2.29Z" transform="translate(-73.09 -5.29)"/><path class="cls-1" d="M2208,295.9l-3.52-10.79H2206l1.68,5.31c.46,1.46.86,2.77,1.15,4h0c.31-1.25.75-2.61,1.23-4l1.83-5.33h1.49l-3.86,10.79Z" transform="translate(-73.09 -5.29)"/><path class="cls-1" d="M2217.69,294.46a3.75,3.75,0,0,0,1.86.56c1,0,1.5-.51,1.5-1.15s-.4-1-1.44-1.43c-1.39-.49-2.05-1.26-2.05-2.19a2.39,2.39,0,0,1,2.68-2.27,3.81,3.81,0,0,1,1.9.48l-.35,1a3,3,0,0,0-1.58-.45c-.84,0-1.3.48-1.3,1.06s.46.93,1.47,1.31c1.35.51,2,1.19,2,2.34,0,1.36-1,2.32-2.89,2.32a4.44,4.44,0,0,1-2.18-.53Z" transform="translate(-73.09 -5.29)"/><path class="cls-1" d="M2225,292.28a2.47,2.47,0,0,0,2.65,2.69,5.19,5.19,0,0,0,2.15-.4l.24,1a6.39,6.39,0,0,1-2.58.48,3.6,3.6,0,0,1-3.81-3.91c0-2.33,1.38-4.17,3.63-4.17,2.53,0,3.21,2.22,3.21,3.65,0,.28,0,.51-.05.65Zm4.12-1a2,2,0,0,0-2-2.29,2.34,2.34,0,0,0-2.16,2.29Z" transform="translate(-73.09 -5.29)"/><path class="cls-1" d="M2233.93,285.93v2.22h2v1.07h-2v4.18c0,1,.28,1.51,1.06,1.51a3.06,3.06,0,0,0,.82-.1l.06,1.06a3.48,3.48,0,0,1-1.25.19,2,2,0,0,1-1.52-.59,2.89,2.89,0,0,1-.54-2v-4.23h-1.2v-1.07h1.2V286.3Z" transform="translate(-73.09 -5.29)"/><polygon class="cls-1" points="2228.18 365.51 2082.22 365.51 2082.22 244.85 2086.4 244.85 2086.4 361.33 2228.18 361.33 2228.18 365.51"/><path class="cls-1" d="M487.94,492.76a58.4,58.4,0,0,1,34.34,71.56c-8.74,28.89-38.52,46.36-68.24,40-29.42-6.25-49.7-34.56-45.88-64s29.29-52.69,57.26-51.59l1.7,7c-20.14.93-35.79,9.3-46.38,26.19a52.92,52.92,0,0,0-7.59,37.38c4,25.06,26.5,45.13,49.48,43.92-6.59-8.59-8.5-18.43-10.3-28.47-.81-4.51-4.12-8.56-6.26-12.77l2.27.79c.83-6.27.72-13,2.8-19s6.39-11.31,9.87-17.18l1.82,2.24c.66-8.55,8.71-13.91,7.83-23.33-.8-8.73-.73-17.26-7.74-25.18a23.64,23.64,0,0,1,4.1.8,41.5,41.5,0,0,1,18.47,15.48c1.43,2.24.91,5.73,1.37,9.4l1.55-3.21c2.34,12.55.93,23.75-5.8,34.25L486,533.3l.65.3-6.46,13.12,2.68-.83c-3.8,8.55-9.25,15.11-17.2,19.48l2.39,3.75-6,4.43,2,3.46-8.49.63c1.58-6.14,2.37-12.1,4.63-17.44,4.35-10.22,9.88-20,14.26-30.16a42.63,42.63,0,0,0,2.79-23.83c.43,15.61-5.5,29.2-13.06,42.34-2.06,3.58-3.63,7.46-5.36,11.23-6.67,14.53-4.56,28.23,4.36,41a8,8,0,0,0,5.89,3c24.07-1.31,43.11-16.34,49.22-38.47s-2.52-46.67-21.56-59.44C491.69,502.57,489,498.74,487.94,492.76Z" transform="translate(-73.09 -5.29)"/><path class="cls-1" d="M695.62,523.63a4.26,4.26,0,0,0,.64.13c6.61.31,7.81,1.54,7.82,8.07q0,26.34,0,52.68c0,4.93-1.85,6.83-6.73,6.85q-11.34,0-22.67,0c-4.14,0-6.19-2.06-6.19-6.19q0-27.25,0-54.51c0-5.06,1.76-6.8,6.89-6.89.45,0,.9,0,1.32-.08,1.51-3.62,1.8-3.81,5.81-3.83h7.56C693.82,519.86,694.3,520.18,695.62,523.63Zm-15.5,3.4c-1.85,0-3.59.05-5.33,0-2.09-.08-3.1.79-3.1,3q0,27.6,0,55.19c0,2,.84,2.91,2.88,2.9q11.68-.06,23.36,0c2.06,0,2.89-.94,2.89-2.91q0-27.6,0-55.18c0-2.16-1.05-3-3.13-3-1.8.06-3.61,0-5.51,0l-.26-3.7h-11.5Z" transform="translate(-73.09 -5.29)"/><path class="cls-1" d="M686.13,553.4l10.37,1.14L679.42,577l-.36-.2,7.1-16.42H675.75l12-23.74.36.13C687.46,542.28,686.81,547.76,686.13,553.4Z" transform="translate(-73.09 -5.29)"/><path class="cls-1" d="M686.21,481.06c17,15.4,36.92,22.38,59.11,23.23,3.51.13,4.59,1.51,4.69,4.73,1.58,50.88-15.9,92.14-60.28,120-2.66,1.67-4.56,1.5-7.14-.08-33-20.23-52.29-49.68-58.28-87.67-1.67-10.61-1.36-21.54-1.86-32.33-.13-2.76.68-4.48,4.23-4.6C649,503.53,669.09,496.53,686.21,481.06Zm-59.69,28.09c.56,9.5.51,18.51,1.7,27.35,5,36.63,22.15,65.82,53.37,86.37,3.48,2.29,6,2.15,9.34-.09,34.57-22.89,51.34-55.75,54.29-96.36.42-5.72.06-11.5.06-17.35-22.51-1.14-42.16-8-59.14-21.72C668.92,501.39,649.31,507.87,626.52,509.15Z" transform="translate(-73.09 -5.29)"/><path class="cls-1" d="M935.49,541.27a18.93,18.93,0,0,1-1.46,7.32H821.34a18.19,18.19,0,0,1-.18-2.57,19,19,0,0,1,15-18.57c0-.14,0-.28,0-.42a19,19,0,0,1,14.68-18.49c0-.43,0-.86,0-1.29a23.34,23.34,0,0,1,43.37-12,19,19,0,0,1,20.34,27.11,18.11,18.11,0,0,1,2-.1A19,19,0,0,1,935.49,541.27Z" transform="translate(-73.09 -5.29)"/><rect class="cls-1" x="796.86" y="583.1" width="54.13" height="1" transform="translate(-215.57 870.71) rotate(-52.14)"/><rect class="cls-1" x="824.8" y="592.76" width="54.13" height="1" transform="translate(-212.4 896.51) rotate(-52.14)"/><rect class="cls-1" x="851.26" y="577.33" width="54.13" height="1" transform="translate(-190 911.44) rotate(-52.14)"/><rect class="cls-1" x="817.68" y="577.33" width="54.13" height="1" transform="translate(-202.97 884.93) rotate(-52.14)"/><path class="cls-1" d="M888.22,587.11l0-1,69.91-1.06a8.44,8.44,0,0,0,8.08-10.34c-1.25-5.43-4.48-9.48-8.43-10.58a13.5,13.5,0,0,0-10.21,2,7.83,7.83,0,0,0-3.81,5.16c-.54,3.66,3,6.65,3,6.68a10.75,10.75,0,0,0,8.32,2.17,5.5,5.5,0,0,0,4-2.44c1.13-1.94.67-5-1.17-7.79l.84-.55c2.07,3.16,2.54,6.55,1.2,8.84a6.5,6.5,0,0,1-4.69,2.93,11.64,11.64,0,0,1-9.13-2.4c-.16-.13-4-3.38-3.34-7.58a8.77,8.77,0,0,1,4.25-5.85,14.48,14.48,0,0,1,11-2.08c4.3,1.19,7.8,5.53,9.13,11.32a9.43,9.43,0,0,1-9,11.56Z" transform="translate(-73.09 -5.29)"/><path class="cls-1" d="M921.88,593.76l0-1,69.9-1.06a8.45,8.45,0,0,0,8.09-10.34c-1.25-5.44-4.48-9.49-8.43-10.58a13.43,13.43,0,0,0-10.22,2,7.84,7.84,0,0,0-3.8,5.16c-.54,3.66,3,6.64,3,6.67a10.74,10.74,0,0,0,8.32,2.18,5.52,5.52,0,0,0,4-2.44c1.13-1.94.67-5-1.17-7.79l.83-.55c2.08,3.15,2.54,6.54,1.21,8.84a6.51,6.51,0,0,1-4.69,2.92,11.63,11.63,0,0,1-9.13-2.39c-.16-.14-4-3.38-3.34-7.59a8.81,8.81,0,0,1,4.25-5.85c3.3-2.15,7.74-3,11-2.08,4.31,1.19,7.81,5.53,9.14,11.32a9.44,9.44,0,0,1-9,11.57Z" transform="translate(-73.09 -5.29)"/><path class="cls-1" d="M899.35,618.73l0-1,69.9-1.06a8.45,8.45,0,0,0,8.09-10.35c-1.25-5.43-4.48-9.48-8.43-10.58a13.49,13.49,0,0,0-10.22,2,7.82,7.82,0,0,0-3.8,5.16c-.54,3.65,3,6.64,3,6.67a10.74,10.74,0,0,0,8.32,2.18,5.55,5.55,0,0,0,4-2.44c1.13-1.94.67-5-1.17-7.79l.83-.55c2.08,3.15,2.54,6.54,1.21,8.84a6.51,6.51,0,0,1-4.69,2.92,11.63,11.63,0,0,1-9.13-2.39c-.17-.14-4-3.39-3.34-7.59a8.79,8.79,0,0,1,4.25-5.85c3.3-2.15,7.74-3,11-2.08,4.31,1.19,7.81,5.53,9.14,11.32a9.44,9.44,0,0,1-9,11.57Z" transform="translate(-73.09 -5.29)"/><path class="cls-1" d="M918.66,525.38a16.6,16.6,0,1,1,16.59-16.59A16.61,16.61,0,0,1,918.66,525.38Zm0-32.53a15.94,15.94,0,1,0,15.94,15.94A16,16,0,0,0,918.66,492.85Z" transform="translate(-73.09 -5.29)"/><rect class="cls-1" x="845.25" y="457.02" width="0.65" height="20.14"/><rect class="cls-1" x="894.93" y="470.83" width="0.65" height="20.14" transform="translate(-172.75 682.72) rotate(-40)"/><rect class="cls-1" x="882.48" y="492.4" width="0.65" height="20.14" transform="translate(161.6 1279.33) rotate(-80)"/><rect class="cls-1" x="877.06" y="526.67" width="20.14" height="0.65" transform="translate(-217.74 509.27) rotate(-30.02)"/><rect class="cls-1" x="896.14" y="542.67" width="20.14" height="0.65" transform="translate(13.46 1204.21) rotate(-70.05)"/><rect class="cls-1" x="930.78" y="532.93" width="0.65" height="20.14" transform="translate(-202.65 345.93) rotate(-20)"/><rect class="cls-1" x="949.86" y="516.92" width="0.65" height="20.14" transform="translate(-54.39 1081.09) rotate(-60)"/><rect class="cls-1" x="944.44" y="502.14" width="20.14" height="0.65" transform="translate(-145.83 168.06) rotate(-10)"/><rect class="cls-1" x="931.99" y="480.57" width="20.14" height="0.65" transform="translate(-105.14 887.73) rotate(-49.97)"/><path class="cls-1" d="M890.38,569.38c0,.18.38.13,1,0C890.76,569.23,890.38,569.19,890.38,569.38Z" transform="translate(-73.09 -5.29)"/><path class="cls-1" d="M914.05,583.13c.15-.09,0-.37-.44-.79C913.77,582.89,913.91,583.21,914.05,583.13Z" transform="translate(-73.09 -5.29)"/><path class="cls-1" d="M898.36,555.63c-.14.08.06.36.44.78C898.64,555.87,898.5,555.55,898.36,555.63Z" transform="translate(-73.09 -5.29)"/><path class="cls-1" d="M914.13,555.67c-.14-.08-.28.25-.45.81C914.08,556.05,914.28,555.76,914.13,555.67Z" transform="translate(-73.09 -5.29)"/><path class="cls-1" d="M898.28,583.08c.14.08.28-.24.45-.8C898.34,582.71,898.13,583,898.28,583.08Z" transform="translate(-73.09 -5.29)"/><path class="cls-1" d="M921,569.38c.61.14,1,.18,1,0S921.65,569.24,921,569.38Z" transform="translate(-73.09 -5.29)"/><path class="cls-1" d="M914.27,568h-.2l-.27-.08c.69-.36,1.34-.76,1.78-1a20.48,20.48,0,0,0-3.34.19h-.06a8.41,8.41,0,0,0-1.14.07h-.67l.14-.08-.19.08h-.1q.1-.07.09-.12s-.15,0-.35.13h-.11l-.15,0h-.4c-.51,0-1,.57-1.53,1.08h0a.88.88,0,0,0-.48.26l-.18.1.21-.23c.5-.28,1-.54,1.17-.92l0-.1c1-.52,2-1,2.23-1.76.11-.32.21-.66.3-1a11.77,11.77,0,0,0,.36-1.27,1.15,1.15,0,0,0,.21-.33,14.28,14.28,0,0,0,.72-2.18,37.73,37.73,0,0,0,1.36-4.38,32.59,32.59,0,0,0-3.43,3.83l0,.08a12.62,12.62,0,0,0-1.15,1.32l0,.06-.28.26c0-.77,0-1.53,0-2a21,21,0,0,0-1.54,3,.29.29,0,0,0,0,.09,7.57,7.57,0,0,0-.49,1l0,.09c-.15.23-.29.47-.41.7q0-.21-.06-.21h0v0a1.15,1.15,0,0,0,0,.48.83.83,0,0,0-.06.32,1.19,1.19,0,0,0-.12.22,1.67,1.67,0,0,0,0,1,.74.74,0,0,0-.14-.28l-.07-.08c0-1.1.13-2.24-.37-2.83a13,13,0,0,0-1.71-1.69l0,0a1.4,1.4,0,0,0-.15-.3,15.27,15.27,0,0,0-1.58-1.78,40.44,40.44,0,0,0-3.06-3.35,32,32,0,0,0,1.58,4.93s0,.09.07.13a12,12,0,0,0,.54,1.6.54.54,0,0,0,.07.13l.09.42c-.64-.43-1.32-.8-1.77-1.07a23.65,23.65,0,0,0,1.72,2.64,8.52,8.52,0,0,0,.75,1.13l.08.09c.12.22.24.43.37.64a.37.37,0,0,0-.15-.06,3.49,3.49,0,0,0-.85-.51s.32.23.85.51l0,0s.11.13.34.27l0,0,0,0a4.92,4.92,0,0,0,.28.45c.27.41,1,.57,1.65.75l0,0h0a.78.78,0,0,0,.37.25l.15.09-.19,0-.13,0a2,2,0,0,0-1.19-.45l-.15,0c-.9-.56-1.81-1.15-2.55-1-.24,0-.49.1-.75.16l-.25,0a12.87,12.87,0,0,0-1.58.38H898a13.63,13.63,0,0,0-2,.4,32.87,32.87,0,0,0-4.62,1,35.14,35.14,0,0,0,4.73,1,12.87,12.87,0,0,0,2,.42h.19l.27.08c-.69.35-1.34.76-1.78,1a21.53,21.53,0,0,0,3.34-.18l.06,0a8.41,8.41,0,0,0,1.14-.07H902l-.14.09.19-.09h.11c-.08,0-.11.09-.1.11s.15,0,.36-.13h.1l.15,0h.41c.5,0,1-.57,1.52-1.07h0a.84.84,0,0,0,.48-.27l.19-.09-.21.23c-.5.27-1,.53-1.18.91l0,.1c-1,.53-2,1-2.23,1.77-.11.32-.21.66-.3,1a11.77,11.77,0,0,0-.36,1.27,1.26,1.26,0,0,0-.21.32,15.47,15.47,0,0,0-.72,2.18,39.23,39.23,0,0,0-1.36,4.39,32.59,32.59,0,0,0,3.43-3.83l.05-.08a15.44,15.44,0,0,0,1.16-1.32l0-.06.28-.27c0,.77,0,1.53,0,2a21.75,21.75,0,0,0,1.54-3l0-.09a9.8,9.8,0,0,0,.48-1,.16.16,0,0,0,0-.09c.15-.24.29-.47.41-.71,0,.14,0,.22.07.22h0v0a1.21,1.21,0,0,0,0-.48,1.14,1.14,0,0,0,.07-.33,1.51,1.51,0,0,0,.11-.22,1.6,1.6,0,0,0,0-1,.87.87,0,0,0,.14.29.27.27,0,0,1,.07.08c0,1.1-.12,2.23.37,2.83a13.62,13.62,0,0,0,1.71,1.68l0,0a1.08,1.08,0,0,0,.16.3,14.48,14.48,0,0,0,1.58,1.79,38.65,38.65,0,0,0,3.05,3.34,31.29,31.29,0,0,0-1.58-4.93l-.07-.13a12.51,12.51,0,0,0-.54-1.6l-.06-.13c0-.14-.07-.28-.1-.42.64.43,1.33.8,1.77,1.08a24,24,0,0,0-1.71-2.64,10.7,10.7,0,0,0-.75-1.14l-.09-.09c-.12-.22-.24-.43-.37-.63a.32.32,0,0,0,.15,0c.5.34.82.56.85.51s-.31-.23-.84-.51h0s-.11-.14-.34-.28l0,0,0-.05-.27-.44a2.92,2.92,0,0,0-1.66-.75l0,0h0a.72.72,0,0,0-.38-.24l-.14-.1.19,0,.14,0a2,2,0,0,0,1.19.45l.15,0a4.39,4.39,0,0,0,2.55,1c.24-.05.49-.1.74-.17h.25a13.2,13.2,0,0,0,1.54-.37h.21a13.86,13.86,0,0,0,2-.4,30.66,30.66,0,0,0,4.67-1,38,38,0,0,0-4.72-1A16.24,16.24,0,0,0,914.27,568Zm-8.24-.71c0,.23,0,.51,0,.82l0-.09a6.19,6.19,0,0,0,0-1.06Zm.36,4.25c0-.23,0-.5,0-.82l0,.09a6.43,6.43,0,0,0,0,1.08C906.44,571.73,906.42,571.62,906.39,571.5Z" transform="translate(-73.09 -5.29)"/><path class="cls-1" d="M906.21,575.07s0-.33,0-.86C906.18,574.74,906.16,575.07,906.21,575.07Z" transform="translate(-73.09 -5.29)"/><path class="cls-1" d="M911.21,566.67s-.28.12-.7.4C911,566.85,911.24,566.72,911.21,566.67Z" transform="translate(-73.09 -5.29)"/><path class="cls-1" d="M906.21,563.68c-.06,0-.05.33,0,.86C906.23,564,906.26,563.68,906.21,563.68Z" transform="translate(-73.09 -5.29)"/><path class="cls-1" d="M901.2,572.09s.28-.13.7-.4C901.45,571.9,901.17,572,901.2,572.09Z" transform="translate(-73.09 -5.29)"/><path class="cls-1" d="M903.49,579.31c.1,0,.14-.19.16-.56C903.47,579.08,903.39,579.29,903.49,579.31Z" transform="translate(-73.09 -5.29)"/><path class="cls-1" d="M913.49,576.66c.08-.08-.12-.24-.46-.45C913.25,576.55,913.41,576.74,913.49,576.66Z" transform="translate(-73.09 -5.29)"/><path class="cls-1" d="M896.25,572c0,.11.25,0,.58-.16C896.45,571.89,896.23,571.93,896.25,572Z" transform="translate(-73.09 -5.29)"/><path class="cls-1" d="M916.16,566.72c0-.1-.25,0-.58.16C916,566.87,916.19,566.83,916.16,566.72Z" transform="translate(-73.09 -5.29)"/><path class="cls-1" d="M898.92,562.09c-.08.09.12.24.46.46C899.17,562.21,899,562,898.92,562.09Z" transform="translate(-73.09 -5.29)"/><path class="cls-1" d="M908.92,559.44c-.1,0-.14.2-.16.57C908.94,559.68,909,559.47,908.92,559.44Z" transform="translate(-73.09 -5.29)"/><path class="cls-1" d="M863.48,603.93c0,.18.39.13,1,0C863.87,603.78,863.48,603.75,863.48,603.93Z" transform="translate(-73.09 -5.29)"/><path class="cls-1" d="M887.16,617.68c.14-.08-.06-.37-.45-.79C886.88,617.44,887,617.76,887.16,617.68Z" transform="translate(-73.09 -5.29)"/><path class="cls-1" d="M871.46,590.18c-.14.08.06.37.45.78C871.74,590.42,871.6,590.1,871.46,590.18Z" transform="translate(-73.09 -5.29)"/><path class="cls-1" d="M887.24,590.22c-.14-.08-.29.25-.45.81C887.18,590.6,887.38,590.31,887.24,590.22Z" transform="translate(-73.09 -5.29)"/><path class="cls-1" d="M871.38,617.63c.14.08.29-.24.45-.8C871.44,617.26,871.23,617.55,871.38,617.63Z" transform="translate(-73.09 -5.29)"/><path class="cls-1" d="M894.14,603.94c.61.13,1,.17,1,0S894.75,603.79,894.14,603.94Z" transform="translate(-73.09 -5.29)"/><path class="cls-1" d="M887.37,602.51h-.19l-.28-.08c.69-.36,1.34-.76,1.78-1a20.53,20.53,0,0,0-3.34.19h-.05a6.88,6.88,0,0,0-1.14.08h-.68l.14-.09-.19.09h-.1c.07-.05.11-.09.09-.12s-.14,0-.35.13H883l-.15,0h-.4c-.51,0-1,.57-1.52,1.08h0a.84.84,0,0,0-.48.27l-.18.09.21-.23c.5-.28,1-.54,1.17-.92l0-.09c1-.53,2-1,2.23-1.77a9.93,9.93,0,0,0,.3-1c.14-.4.26-.83.37-1.27a1.38,1.38,0,0,0,.2-.33,13.26,13.26,0,0,0,.72-2.18,38,38,0,0,0,1.37-4.38,30.89,30.89,0,0,0-3.43,3.83.22.22,0,0,0-.05.08,11.67,11.67,0,0,0-1.16,1.32l0,.06a3.45,3.45,0,0,0-.28.26c0-.76,0-1.52,0-2a19.13,19.13,0,0,0-1.54,3l0,.09a8.25,8.25,0,0,0-.49,1l0,.09c-.15.23-.29.47-.41.7,0-.13,0-.21-.06-.21h0v0a1.48,1.48,0,0,0,0,.48.88.88,0,0,0-.07.32l-.12.22a1.67,1.67,0,0,0,0,1,.67.67,0,0,0-.14-.28l-.06-.08c0-1.1.12-2.24-.37-2.83a15.31,15.31,0,0,0-1.72-1.69l0,0a1.64,1.64,0,0,0-.16-.29,15.35,15.35,0,0,0-1.58-1.79,40.51,40.51,0,0,0-3.05-3.35,30.83,30.83,0,0,0,1.57,4.93c0,.05,0,.09.07.13a13.63,13.63,0,0,0,.54,1.6l.07.14c0,.14.06.27.1.41-.65-.42-1.33-.79-1.77-1.07a24.92,24.92,0,0,0,1.71,2.64,8.52,8.52,0,0,0,.75,1.13l.09.09a6.67,6.67,0,0,0,.37.64.32.32,0,0,0-.15-.05c-.5-.34-.82-.56-.85-.52s.31.23.84.52h0s.1.14.34.27l0,0,0,0a4.87,4.87,0,0,0,.27.45c.28.41,1,.57,1.65.75l.05,0h0a.82.82,0,0,0,.38.25l.14.09-.19,0-.12,0a2,2,0,0,0-1.2-.45l-.14,0c-.91-.56-1.82-1.15-2.56-1a7.12,7.12,0,0,0-.74.17,1,1,0,0,0-.25,0,12.05,12.05,0,0,0-1.58.38h-.26a13.75,13.75,0,0,0-2,.4,32.87,32.87,0,0,0-4.62,1,35.14,35.14,0,0,0,4.73,1,13.1,13.1,0,0,0,2,.42h.19l.28.08c-.69.35-1.34.76-1.79,1a21.6,21.6,0,0,0,3.34-.19h.06a10.2,10.2,0,0,0,1.14-.08h0c.21,0,.42,0,.63,0l-.14.09.19-.09h.1c-.07.05-.11.09-.09.11s.14,0,.35-.13h.11l.14,0h.41c.51,0,1-.57,1.52-1.08h0a.84.84,0,0,0,.48-.27l.19-.09-.21.23c-.5.27-1,.53-1.17.91l0,.1c-1,.53-2,1-2.22,1.77a7.9,7.9,0,0,0-.3,1c-.14.4-.26.83-.37,1.27a1.55,1.55,0,0,0-.2.32,13.26,13.26,0,0,0-.72,2.18,37.49,37.49,0,0,0-1.37,4.39,31.72,31.72,0,0,0,3.43-3.83l0-.08a12.75,12.75,0,0,0,1.16-1.32.21.21,0,0,0,0-.06l.28-.26c0,.76,0,1.52,0,2a19.13,19.13,0,0,0,1.54-3l0-.1a7.46,7.46,0,0,0,.49-1l0-.09c.15-.24.29-.47.41-.71,0,.14,0,.22.06.22h0v0a1.52,1.52,0,0,0,0-.48,1.14,1.14,0,0,0,.07-.32l.12-.23a1.66,1.66,0,0,0,0-1.05.71.71,0,0,0,.14.29l.06.08c0,1.1-.12,2.23.37,2.83a15.2,15.2,0,0,0,1.71,1.69l0,0a1.43,1.43,0,0,0,.16.3,14.58,14.58,0,0,0,1.58,1.79,40.34,40.34,0,0,0,3.05,3.34,31.15,31.15,0,0,0-1.57-4.93l-.08-.12a12.66,12.66,0,0,0-.54-1.61,1.39,1.39,0,0,0-.06-.13c0-.14-.06-.28-.1-.41.65.42,1.33.79,1.77,1.07a24,24,0,0,0-1.71-2.64,8.52,8.52,0,0,0-.75-1.13l-.09-.1c-.11-.21-.24-.43-.37-.63a.38.38,0,0,0,.16,0c.49.34.81.56.84.51s-.31-.23-.84-.51h0s-.1-.14-.33-.28l0,0,0,0a4,4,0,0,0-.27-.44c-.27-.41-1-.57-1.65-.75l-.05,0h0a.8.8,0,0,0-.38-.24l-.14-.1.19,0,.13,0a2,2,0,0,0,1.19.45l.15,0a4.41,4.41,0,0,0,2.56,1c.24,0,.48-.1.73-.17h.26a11.69,11.69,0,0,0,1.53-.37h.22a13.74,13.74,0,0,0,2-.4,31.73,31.73,0,0,0,4.67-1,36.09,36.09,0,0,0-4.72-1A15.89,15.89,0,0,0,887.37,602.51Zm-8.24-.7c0,.22,0,.5,0,.82a.46.46,0,0,0,0-.09,6.36,6.36,0,0,0,0-1.07C879.07,601.58,879.1,601.69,879.13,601.81Zm.36,4.24c0-.22,0-.5,0-.82a.46.46,0,0,0,0,.09,5.56,5.56,0,0,0,0,1.08C879.55,606.28,879.52,606.17,879.49,606.05Z" transform="translate(-73.09 -5.29)"/><path class="cls-1" d="M879.31,609.62c.06,0,0-.33,0-.85C879.28,609.29,879.26,609.62,879.31,609.62Z" transform="translate(-73.09 -5.29)"/><path class="cls-1" d="M884.32,601.22s-.29.13-.71.4C884.06,601.4,884.34,601.27,884.32,601.22Z" transform="translate(-73.09 -5.29)"/><path class="cls-1" d="M879.31,598.24c-.06,0,0,.33,0,.85C879.33,598.57,879.36,598.24,879.31,598.24Z" transform="translate(-73.09 -5.29)"/><path class="cls-1" d="M874.3,606.64s.29-.13.71-.4C874.56,606.45,874.28,606.59,874.3,606.64Z" transform="translate(-73.09 -5.29)"/><path class="cls-1" d="M876.59,613.87c.11,0,.15-.2.16-.57C876.58,613.63,876.49,613.84,876.59,613.87Z" transform="translate(-73.09 -5.29)"/><path class="cls-1" d="M886.59,611.21c.09-.08-.11-.24-.46-.45C886.35,611.1,886.51,611.3,886.59,611.21Z" transform="translate(-73.09 -5.29)"/><path class="cls-1" d="M869.36,606.59c0,.1.24,0,.57-.16C869.56,606.44,869.33,606.48,869.36,606.59Z" transform="translate(-73.09 -5.29)"/><path class="cls-1" d="M889.26,601.27c0-.1-.24,0-.58.16C889.06,601.42,889.29,601.38,889.26,601.27Z" transform="translate(-73.09 -5.29)"/><path class="cls-1" d="M872,596.65c-.09.08.11.23.46.45C872.27,596.76,872.11,596.56,872,596.65Z" transform="translate(-73.09 -5.29)"/><path class="cls-1" d="M882,594c-.11,0-.15.2-.16.57C882,594.23,882.13,594,882,594Z" transform="translate(-73.09 -5.29)"/><path class="cls-1" d="M1189.07,157.36a27.92,27.92,0,0,1-16.13-50.7V58.57a16.17,16.17,0,1,1,32.33,0v48.15a27.91,27.91,0,0,1-16.2,50.64Zm0-104.93a6.15,6.15,0,0,0-6.14,6.14v53.8l-2.58,1.43a17.9,17.9,0,1,0,17.42,0l-2.57-1.44V58.57a6.13,6.13,0,0,0-6.13-6.14Z" transform="translate(-73.09 -5.29)"/><polygon class="cls-1" points="987.12 147.06 980.09 119.24 991.57 107.11 982.62 89.7 991.57 79.29 982.62 63.6 992.84 51.46 983.93 51.46 995.41 35.78 1006.89 53.19 999.25 51.46 990.31 63.6 999.25 77.51 990.31 91.42 1000.52 107.11 989.03 122.74 999.25 145.34 987.12 147.06"/><polygon class="cls-1" points="1020.56 146.68 1013.52 118.86 1025 106.72 1016.05 89.32 1025 78.91 1016.05 63.21 1026.28 51.08 1017.37 51.08 1028.84 35.39 1040.32 52.81 1032.68 51.08 1023.74 63.21 1032.68 77.13 1023.74 91.03 1033.95 106.72 1022.47 122.36 1032.68 144.96 1020.56 146.68"/><polygon class="cls-1" points="1052.59 146.68 1045.55 118.86 1057.04 106.72 1048.08 89.32 1057.04 78.91 1048.08 63.21 1058.31 51.08 1049.4 51.08 1060.87 35.39 1072.36 52.81 1064.71 51.08 1055.77 63.21 1064.71 77.13 1055.77 91.03 1065.98 106.72 1054.5 122.36 1064.71 144.96 1052.59 146.68"/><path class="cls-1" d="M1158.44,172.79H1038.91l-1.57-1.62c-1.49-1.58-2.4-2.53-1.28-22.15l10,.58c-.26,4.5-.45,9.71-.47,13.16h102.8V151.31h10Z" transform="translate(-73.09 -5.29)"/><rect class="cls-1" x="1112.61" y="54.06" width="15.48" height="0.48"/><rect class="cls-1" x="1112.61" y="66.39" width="15.48" height="0.48"/><rect class="cls-1" x="1116.52" y="56.56" width="11.57" height="0.41"/><rect class="cls-1" x="1116.52" y="59.02" width="11.57" height="0.41"/><rect class="cls-1" x="1116.52" y="61.49" width="11.57" height="0.41"/><rect class="cls-1" x="1116.52" y="63.96" width="11.57" height="0.41"/><rect class="cls-1" x="1112.61" y="78.72" width="15.48" height="0.48"/><rect class="cls-1" x="1116.52" y="68.89" width="11.57" height="0.41"/><rect class="cls-1" x="1116.52" y="71.35" width="11.57" height="0.41"/><rect class="cls-1" x="1116.52" y="73.82" width="11.57" height="0.41"/><rect class="cls-1" x="1116.52" y="76.29" width="11.57" height="0.41"/><rect class="cls-1" x="1112.61" y="91.05" width="15.48" height="0.48"/><rect class="cls-1" x="1116.52" y="81.22" width="11.57" height="0.41"/><rect class="cls-1" x="1116.52" y="83.69" width="11.57" height="0.41"/><rect class="cls-1" x="1116.52" y="86.15" width="11.57" height="0.41"/><rect class="cls-1" x="1116.52" y="88.62" width="11.57" height="0.41"/><rect class="cls-1" x="1112.61" y="103.38" width="15.48" height="0.48"/><rect class="cls-1" x="1116.52" y="93.55" width="11.57" height="0.41"/><rect class="cls-1" x="1116.52" y="96.02" width="11.57" height="0.41"/><rect class="cls-1" x="1116.52" y="98.48" width="11.57" height="0.41"/><rect class="cls-1" x="1116.52" y="100.95" width="11.57" height="0.41"/><circle class="cls-1" cx="1115.98" cy="123.89" r="12.1"/><path class="cls-1" d="M1189.07,126.35H1189a3.5,3.5,0,0,1-3.41-3.59l.53-21.54a3.5,3.5,0,1,1,7,.17l-.53,21.54A3.5,3.5,0,0,1,1189.07,126.35Z" transform="translate(-73.09 -5.29)"/><path class="cls-1" d="M664.81,263.2h0l-1.35.73-.21-.8,1.71-.91h.9V270h-1Z" transform="translate(-73.09 -5.29)"/><path class="cls-1" d="M731.48,292.17v-.65l.82-.81c2-1.89,2.89-2.9,2.91-4.07a1.4,1.4,0,0,0-1.55-1.53,2.66,2.66,0,0,0-1.66.66l-.33-.74a3.4,3.4,0,0,1,2.2-.79,2.19,2.19,0,0,1,2.39,2.26c0,1.44-1,2.61-2.68,4.19l-.63.58v0h3.5v.88Z" transform="translate(-73.09 -5.29)"/><path class="cls-1" d="M687.4,251.91a78.75,78.75,0,1,0,78.74,78.74A78.74,78.74,0,0,0,687.4,251.91ZM629,353.25a4.92,4.92,0,1,1-3.16-6.19A4.92,4.92,0,0,1,629,353.25Zm95.51-79.61a4.93,4.93,0,1,1-3.16,6.21A4.93,4.93,0,0,1,724.49,273.64Zm-76-.48a4.92,4.92,0,1,1-4.92,4.92A4.92,4.92,0,0,1,648.49,273.16ZM690.86,400.4a4.93,4.93,0,1,1-1.09-6.88A4.93,4.93,0,0,1,690.86,400.4Zm-3.46-17.17A52.58,52.58,0,1,1,740,330.65,52.58,52.58,0,0,1,687.4,383.23Zm65.23-27.11a4.93,4.93,0,1,1,1.09-6.88A4.93,4.93,0,0,1,752.63,356.12Z" transform="translate(-73.09 -5.29)"/><rect class="cls-1" x="675.4" y="294.37" width="23.99" height="76.59" rx="12" transform="translate(-106.98 578.21) rotate(-45)"/><path class="cls-1" d="M740.76,368.45a3.57,3.57,0,0,0,1.73.49c1.36,0,1.78-.86,1.76-1.51,0-1.09-1-1.56-2-1.56h-.59v-.79h.59c.77,0,1.74-.4,1.74-1.32,0-.62-.4-1.18-1.37-1.18a2.89,2.89,0,0,0-1.56.52l-.27-.77a3.65,3.65,0,0,1,2-.6c1.54,0,2.24.92,2.24,1.86a1.94,1.94,0,0,1-1.44,1.84v0a2,2,0,0,1,1.74,2c0,1.24-1,2.33-2.85,2.33a4,4,0,0,1-2-.52Z" transform="translate(-73.09 -5.29)"/><path class="cls-1" d="M672.27,397.5v-2.12h-3.62v-.7l3.48-5h1.14v4.84h1.09v.83h-1.09v2.12Zm0-2.95V392c0-.41,0-.82,0-1.22h0c-.24.45-.43.79-.65,1.15l-1.9,2.65v0Z" transform="translate(-73.09 -5.29)"/><path class="cls-1" d="M624.57,336.27h-3l-.3,2a3.4,3.4,0,0,1,.63,0,3.28,3.28,0,0,1,1.68.42,2.23,2.23,0,0,1,1.12,2,2.71,2.71,0,0,1-2.91,2.66,3.7,3.7,0,0,1-1.94-.48l.26-.8a3.54,3.54,0,0,0,1.67.43,1.72,1.72,0,0,0,1.85-1.69c0-1-.69-1.73-2.24-1.73a7.17,7.17,0,0,0-1.08.09l.5-3.74h3.73Z" transform="translate(-73.09 -5.29)"/><path class="cls-1" d="M674,89.13v17.6h7.54v12H674V121H627.63a5,5,0,0,1-5-5v-13h.14V92.64h-.14V79.91a5,5,0,0,1,5-5H674v2.23h7.54v12Z" transform="translate(-73.09 -5.29)"/><rect class="cls-1" x="549.52" y="87.35" width="0.14" height="10.27"/><rect class="cls-1" x="520.88" y="87.35" width="28.78" height="10.27"/><rect class="cls-1" x="528.14" y="86.43" width="1.96" height="12.22"/><rect class="cls-1" x="531.78" y="86.43" width="1.96" height="12.22"/><rect class="cls-1" x="535.27" y="86.48" width="1.96" height="12.22"/><rect class="cls-1" x="538.76" y="86.54" width="1.96" height="12.22"/><rect class="cls-1" x="542.25" y="86.59" width="1.96" height="12.22"/><rect class="cls-1" x="545.75" y="86.64" width="1.96" height="12.22"/><rect class="cls-1" x="676.72" y="87.67" width="0.14" height="10.26"/><path class="cls-1" d="M749.8,93v10.26h.14V116a5,5,0,0,1-5,5H698.53v-2.23H691v-12h7.55V89.13H691v-12h7.55V74.88h46.38a5,5,0,0,1,5,5V93Z" transform="translate(-73.09 -5.29)"/><rect class="cls-1" x="676.72" y="87.67" width="28.78" height="10.26"/><rect class="cls-1" x="769.36" y="91.93" width="1.96" height="12.22" transform="translate(1467.59 190.79) rotate(180)"/><rect class="cls-1" x="765.73" y="91.93" width="1.96" height="12.22" transform="translate(1460.33 190.79) rotate(180)"/><rect class="cls-1" x="762.24" y="91.87" width="1.96" height="12.22" transform="translate(1453.34 190.69) rotate(180)"/><rect class="cls-1" x="758.74" y="91.82" width="1.96" height="12.22" transform="translate(1446.36 190.58) rotate(180)"/><rect class="cls-1" x="755.25" y="91.77" width="1.96" height="12.22" transform="translate(1439.37 190.48) rotate(180)"/><rect class="cls-1" x="751.76" y="91.72" width="1.96" height="12.22" transform="translate(1432.39 190.37) rotate(180)"/><path class="cls-1" d="M666.73,111.93v1.14H662.4v-1.14Z" transform="translate(-73.09 -5.29)"/><path class="cls-1" d="M665.13,78.84V83h4V84h-4v4.16H664V84h-4V83h4V78.84Z" transform="translate(-73.09 -5.29)"/><path class="cls-1" d="M707.45,82.85V84h-4.33V82.85Z" transform="translate(-73.09 -5.29)"/><path class="cls-1" d="M705.84,107.92V112h4v1h-4v4.15h-1.12v-4.15h-4v-1h4v-4.12Z" transform="translate(-73.09 -5.29)"/><path class="cls-1" d="M2035.39,326.79l11.57,1.28-19,25.1-.41-.23c2.58-6,5.16-11.94,7.92-18.31h-11.61l13.4-26.49.4.14C2036.88,314.39,2036.15,320.5,2035.39,326.79Z" transform="translate(-73.09 -5.29)"/><path class="cls-1" d="M2069.89,292a6.5,6.5,0,0,1-.49,2.46h-37.83a6.25,6.25,0,0,1-.06-.87,6.38,6.38,0,0,1,5-6.23v-.14a6.38,6.38,0,0,1,4.93-6.21c0-.14,0-.28,0-.43a7.84,7.84,0,0,1,14.56-4,6.74,6.74,0,0,1,1.11-.1,6.38,6.38,0,0,1,5.71,9.2q.33,0,.66,0A6.38,6.38,0,0,1,2069.89,292Z" transform="translate(-73.09 -5.29)"/><polygon class="cls-1" points="1914.97 365.47 1855.65 365.47 1855.65 358.47 1911.13 358.47 1931.23 326.75 1946.3 356.12 2010.72 356.12 2010.72 363.12 1942.03 363.12 1930.59 340.84 1914.97 365.47"/><path class="cls-1" d="M461.82,241.49c17,15.4,36.92,22.38,59.11,23.23,3.51.13,4.6,1.51,4.7,4.73,1.57,50.88-15.91,92.14-60.29,120-2.66,1.66-4.56,1.5-7.13-.08-33-20.23-52.3-49.68-58.29-87.67-1.67-10.61-1.36-21.54-1.85-32.33-.13-2.76.68-4.48,4.22-4.61C424.65,264,444.7,257,461.82,241.49Zm-59.68,28.09c.55,9.49.5,18.51,1.7,27.35,5,36.63,22.14,65.82,53.36,86.37,3.49,2.29,6,2.15,9.35-.1,34.57-22.88,51.34-55.75,54.28-96.36.42-5.72.06-11.49.06-17.34-22.51-1.14-42.16-8-59.14-21.72C444.53,261.82,424.93,268.3,402.14,269.58Z" transform="translate(-73.09 -5.29)"/><path class="cls-1" d="M440,312c2.3,1.45,4.48,3,6.59,4.66s4.17,3.31,6.17,5.05,4,3.5,5.89,5.3l2.85,2.73,2.79,2.79h-6.35c3.66-4.3,7.36-8.56,11.2-12.7s7.72-8.24,11.72-12.22,8.11-7.89,12.36-11.66,8.59-7.45,13.26-10.83c-2.88,5-6.11,9.69-9.41,14.31s-6.78,9.09-10.34,13.48-7.2,8.7-10.95,12.91-7.59,8.36-11.49,12.44l-3.43,3.59-2.92-3.59-2.49-3.06L453,332.08c-1.59-2.11-3.16-4.23-4.67-6.4s-3-4.39-4.39-6.66S441.19,314.43,440,312Z" transform="translate(-73.09 -5.29)"/><path class="cls-1" d="M93.68,1041.53a20.74,20.74,0,1,0,20.91,20.81A20.79,20.79,0,0,0,93.68,1041.53Zm-.5,40.72a20,20,0,1,1,20.69-19.1A20.12,20.12,0,0,1,93.18,1082.25Z" transform="translate(-73.09 -5.29)"/><path class="cls-1" d="M113.87,1063.15a20.06,20.06,0,1,1-19.13-20.9A20.09,20.09,0,0,1,113.87,1063.15Z" transform="translate(-73.09 -5.29)"/><path class="cls-2" d="M93.92,1050c1.44,2.41,3,4.89,4.43,7.47a5.1,5.1,0,0,1-1.21,6.4,5,5,0,0,1-6.3.07,5.14,5.14,0,0,1-1.33-6.48C90.9,1054.87,92.49,1052.4,93.92,1050Zm-1,4.19c-3,3.24-4.39,6.73-1.13,9C89.52,1059.73,91.71,1057,93,1054.19Z" transform="translate(-73.09 -5.29)"/><path class="cls-2" d="M85.48,1069.21v7.72h-1v-7.72Z" transform="translate(-73.09 -5.29)"/><path class="cls-2" d="M87.22,1069.3a11.56,11.56,0,0,1,1.92-.15,3.16,3.16,0,0,1,2.16.64,2.07,2.07,0,0,1,.68,1.62,2.31,2.31,0,0,1-.59,1.65,3.23,3.23,0,0,1-2.37.85,3.26,3.26,0,0,1-.8-.07v3.09h-1Zm1,3.72a3.23,3.23,0,0,0,.83.08c1.2,0,1.93-.58,1.93-1.65s-.72-1.51-1.82-1.51a3.91,3.91,0,0,0-.94.08Z" transform="translate(-73.09 -5.29)"/><path class="cls-2" d="M97.22,1070.19a3.56,3.56,0,0,0-.76,0,3,3,0,0,0-2.59,2.65h0a2.27,2.27,0,0,1,4,1.54,2.49,2.49,0,0,1-2.48,2.63c-1.6,0-2.64-1.24-2.64-3.18a4.73,4.73,0,0,1,1.26-3.36,4.15,4.15,0,0,1,2.39-1.1,5.55,5.55,0,0,1,.73-.05Zm-.29,4.3a1.51,1.51,0,0,0-1.53-1.71,1.67,1.67,0,0,0-1.45.92.86.86,0,0,0-.11.45c0,1.22.58,2.13,1.64,2.13C96.35,1076.28,96.93,1075.56,96.93,1074.49Z" transform="translate(-73.09 -5.29)"/><path class="cls-2" d="M103.69,1069.48v.67l-3.25,6.78h-1l3.23-6.59v0H99v-.84Z" transform="translate(-73.09 -5.29)"/><path class="cls-1" d="M93,1140.28l11.86,1.32-19.53,25.74-.43-.24c2.65-6.12,5.3-12.24,8.14-18.78H81.08l13.73-27.16.41.14C94.47,1127.57,93.73,1133.83,93,1140.28Z" transform="translate(-73.09 -5.29)"/><path class="cls-1" d="M88.68,1243.29a8.79,8.79,0,0,1-5.08-16v-15.15a5.09,5.09,0,1,1,10.18,0v15.17a8.78,8.78,0,0,1-5.1,15.94Zm0-33a1.94,1.94,0,0,0-1.94,1.93v17l-.81.45a5.63,5.63,0,1,0,5.49,0l-.81-.45v-17a1.95,1.95,0,0,0-1.93-1.93Z" transform="translate(-73.09 -5.29)"/><rect class="cls-1" x="14.53" y="1207.14" width="4.87" height="0.15"/><rect class="cls-1" x="14.53" y="1211.03" width="4.87" height="0.15"/><rect class="cls-1" x="15.76" y="1207.93" width="3.64" height="0.13"/><rect class="cls-1" x="15.76" y="1208.71" width="3.64" height="0.13"/><rect class="cls-1" x="15.76" y="1209.48" width="3.64" height="0.13"/><rect class="cls-1" x="15.76" y="1210.26" width="3.64" height="0.13"/><rect class="cls-1" x="14.53" y="1214.91" width="4.87" height="0.15"/><rect class="cls-1" x="15.76" y="1211.81" width="3.64" height="0.13"/><rect class="cls-1" x="15.76" y="1212.59" width="3.64" height="0.13"/><rect class="cls-1" x="15.76" y="1213.37" width="3.64" height="0.13"/><rect class="cls-1" x="15.76" y="1214.14" width="3.64" height="0.13"/><rect class="cls-1" x="14.53" y="1218.79" width="4.87" height="0.15"/><rect class="cls-1" x="15.76" y="1215.7" width="3.64" height="0.13"/><rect class="cls-1" x="15.76" y="1216.47" width="3.64" height="0.13"/><rect class="cls-1" x="15.76" y="1217.25" width="3.64" height="0.13"/><rect class="cls-1" x="15.76" y="1218.03" width="3.64" height="0.13"/><rect class="cls-1" x="14.53" y="1222.67" width="4.87" height="0.15"/><rect class="cls-1" x="15.76" y="1219.58" width="3.64" height="0.13"/><rect class="cls-1" x="15.76" y="1220.36" width="3.64" height="0.13"/><rect class="cls-1" x="15.76" y="1221.13" width="3.64" height="0.13"/><rect class="cls-1" x="15.76" y="1221.91" width="3.64" height="0.13"/><path class="cls-1" d="M98.33,1212.2a3.38,3.38,0,1,1,3.38-3.38A3.38,3.38,0,0,1,98.33,1212.2Zm0-5.21a1.83,1.83,0,1,0,1.83,1.83A1.83,1.83,0,0,0,98.33,1207Z" transform="translate(-73.09 -5.29)"/><path class="cls-1" d="M110.19,1227.76a10.14,10.14,0,0,1-4.14.74c-4.42,0-7.74-2.79-7.74-7.92a7.8,7.8,0,0,1,8.18-8.23,8.4,8.4,0,0,1,3.72.7l-.49,1.65a7.41,7.41,0,0,0-3.16-.65c-3.67,0-6.11,2.35-6.11,6.46,0,3.83,2.21,6.3,6,6.3a8.21,8.21,0,0,0,3.3-.65Z" transform="translate(-73.09 -5.29)"/><path class="cls-1" d="M91.49,1235.27a2.89,2.89,0,1,1-3.69-2.77l.1-18.19a.83.83,0,0,1,.85-.82.85.85,0,0,1,.82.86l-.1,18.17A2.89,2.89,0,0,1,91.49,1235.27Z" transform="translate(-73.09 -5.29)"/><path class="cls-1" d="M423.77,1080.75q-2.62-10.47-5.24-20.93c-.35-1.42.35-3.07.28-4.6s-.11-3.2-.94-4a3.74,3.74,0,0,0-3.72,0c-.82.83-.82,2.64-.88,4s.65,3,.32,4.26l-5.31,21.23h4.31a.52.52,0,0,0-.1-.11h7.74l-.12.11ZM416,1058.3c.43,3.54,4.26,7,0,10.8C411.83,1065.27,415.71,1061.81,416,1058.3Zm-4.71,20.44,4.69-6.48c1.63,2.16,3.07,4,4.92,6.48Z" transform="translate(-73.09 -5.29)"/><path class="cls-1" d="M406.14,1040.37c-8.31,9.1-8.17,17.61-.42,26.16-3.54-.43-6.79-5.4-7.26-10.61C397.81,1048.7,400.72,1042.07,406.14,1040.37Z" transform="translate(-73.09 -5.29)"/><path class="cls-1" d="M426.24,1066.65c7.92-8.69,7.95-17.29-.07-26.06,4.57,1.08,7.64,7,7.53,13.44C433.6,1060.2,430.5,1065.8,426.24,1066.65Z" transform="translate(-73.09 -5.29)"/><path class="cls-1" d="M407.19,1064.47c-4-3-5.36-6.81-5.25-11.4a13.28,13.28,0,0,1,5.41-10.52c-1.42,4.14-3.53,7.63-3.55,11.13S405.87,1060.56,407.19,1064.47Z" transform="translate(-73.09 -5.29)"/><path class="cls-1" d="M424.51,1063.86c6.63-11.25,4.43-12.94-.1-20.34,3.06.51,5.48,4.42,5.69,9.17C430.34,1058.37,428.08,1062.88,424.51,1063.86Z" transform="translate(-73.09 -5.29)"/><path class="cls-1" d="M410,1061.68c-3.63-1.71-4.64-4.7-4.65-8s1-6.32,4.66-8.05C405.86,1051,405.76,1056.29,410,1061.68Z" transform="translate(-73.09 -5.29)"/><path class="cls-1" d="M421.61,1061.4c4.8-5.24,4.37-10.46.26-15.74,4,1.93,5.44,5.46,4.62,10.12C425.91,1059.09,424.46,1060.93,421.61,1061.4Z" transform="translate(-73.09 -5.29)"/><path class="cls-1" d="M411,1049.24v8.81A5.29,5.29,0,0,1,411,1049.24Z" transform="translate(-73.09 -5.29)"/><path class="cls-1" d="M421.07,1058.17v-8.92l.43-.42c.62,1.46,1.75,2.93,1.73,4.39,0,1.77-1,3.52-1.55,5.29Z" transform="translate(-73.09 -5.29)"/><path class="cls-1" d="M441.26,1043.77c0,.1-.08.2-.13.3v-.3Z" transform="translate(-73.09 -5.29)"/><path class="cls-1" d="M441.26,1043.77c0,.1-.08.2-.13.3v-.3Z" transform="translate(-73.09 -5.29)"/><path class="cls-1" d="M409.37,1154l-1.81,1.74-1.7-1.77-1.75,1.67-1.7-1.78c.52-.5,1-1,1.57-1.48a1.13,1.13,0,0,1,.71-.19l11.31.27a2,2,0,0,0,1.57-.61,12.37,12.37,0,0,1,8.89-3.54,6.14,6.14,0,0,1-.28,12.27,12.48,12.48,0,0,1-8.88-4.11,1.67,1.67,0,0,0-1-.49c-1.4-.08-2.81-.12-4.21-.1a1.83,1.83,0,0,1-1.61-.72A13.92,13.92,0,0,0,409.37,1154Zm20.08-2.68c-.52-.55-1.08-.41-1.42.4a7.35,7.35,0,0,0-.11,5.53,1.22,1.22,0,0,0,.79.72c.26,0,.68-.36.82-.66a7.36,7.36,0,0,0,.14-5.59A2,2,0,0,0,429.45,1151.35Z" transform="translate(-73.09 -5.29)"/><path class="cls-1" d="M403.86,1128.83a13.16,13.16,0,1,1,6.12,17.56A13.09,13.09,0,0,1,403.86,1128.83Zm15-.87a7.32,7.32,0,1,0,3.35,9.86A7.38,7.38,0,0,0,418.9,1128Zm-12.9,3.48a3.82,3.82,0,0,0-.41-.76c-.15-.16-.43-.19-.65-.29-.07.24-.24.52-.17.71a18.67,18.67,0,0,0,.94,2,.75.75,0,0,0,.54.36.7.7,0,0,0,.45-.45,10.76,10.76,0,0,1,5.07-6.41c.31-.19.56-.38.34-.76s-.56-.26-.82-.06a20.61,20.61,0,0,0-2.81,2.24A36.46,36.46,0,0,0,406,1131.44Zm20.29.1a1,1,0,0,0-.48-1.26A.94.94,0,0,0,425,1132,1,1,0,0,0,426.29,1131.54Zm-19.48,6.84a.94.94,0,0,0-1.64-.91.94.94,0,1,0,1.64.91Zm12.84-12a1,1,0,0,0,1.27-.43,1,1,0,0,0-.44-1.22,1,1,0,0,0-1.28.4A1,1,0,0,0,419.65,1126.35Zm-5.23-1.26c-.16-.33-.23-.64-.37-.67s-.42.13-.64.21c.09.19.12.48.27.56S414.08,1125.15,414.42,1125.09Z" transform="translate(-73.09 -5.29)"/><path class="cls-1" d="M417.36,1138.89l-2.63.2-.68-8.88,2.63-.21Z" transform="translate(-73.09 -5.29)"/><path class="cls-1" d="M432.85,1233.88v4.29H396v-4.29h4.18a4.1,4.1,0,0,1,8.16,0h1.54a4.09,4.09,0,0,1,8.15,0h2.48a4.09,4.09,0,0,1,8.15,0Z" transform="translate(-73.09 -5.29)"/><path class="cls-1" d="M426,1220.81q-5.19-8-10.39-16a5.3,5.3,0,0,0-.74-.76h-.51l-9,5.85c-.85.56-.93.93-.38,1.78l3.36,5.2,7.49,11.55.84,0c-.07,0,.05,0,.2-.06,2.91-2,5.83-3.93,8.75-5.83C426.39,1222,426.49,1221.54,426,1220.81Z" transform="translate(-73.09 -5.29)"/><path class="cls-1" d="M400.45,1215.88c0-.15,0-.34.09-.43s.44-.36.66-.54c.18.23.5.44.52.68,0,1,0,1.91,0,2.87a.64.64,0,0,0,.47.71c.81.32,1.59.7,2.4,1a.87.87,0,0,1,.64,1c0,.89,0,1.79,0,2.68a.62.62,0,0,0,.47.71c.83.33,1.64.7,2.46,1,.41.17.74.42.53.91s-.61.42-1,.24c-1-.44-2-.89-3-1.3a.91.91,0,0,1-.64-1c0-.89,0-1.79.06-2.68a.6.6,0,0,0-.43-.67c-.81-.32-1.61-.67-2.4-1a4.33,4.33,0,0,1-.71-.5Z" transform="translate(-73.09 -5.29)"/><path class="cls-1" d="M431.1,1217.41c0,.19,0,.42-.1.55a4.26,4.26,0,0,1-.62.58c-.19-.21-.53-.42-.55-.65a25,25,0,0,1,0-2.74.79.79,0,0,0-.59-.94c-.8-.28-1.56-.68-2.35-1a.82.82,0,0,1-.57-.88c0-.83,0-1.66.05-2.48a.86.86,0,0,0-.66-1c-.77-.28-1.52-.66-2.28-1-.41-.18-.74-.42-.52-.91s.61-.42,1-.24c1,.44,2,.89,3,1.31a.91.91,0,0,1,.64,1c0,.85,0,1.7-.05,2.55a.63.63,0,0,0,.47.75c.8.31,1.57.66,2.34,1a5.66,5.66,0,0,1,.73.47Z" transform="translate(-73.09 -5.29)"/><path class="cls-1" d="M424.76,1212.13c0,.62-.22,1.37.06,1.81s1.05.55,1.6.81c2.18,1,1.75.34,1.77,2.74,0,.73,0,1.45,0,2.17,0,.42-.16.72-.62.72s-.63-.3-.63-.71c0-.93,0-1.87.05-2.8a.62.62,0,0,0-.45-.72c-.83-.33-1.63-.71-2.46-1.05a.9.9,0,0,1-.64-1c0-.89,0-1.78.06-2.67a.59.59,0,0,0-.42-.67c-.85-.34-1.68-.73-2.52-1.08-.42-.18-.72-.44-.5-.92s.59-.41,1-.24c1,.45,2.06.91,3.1,1.33a.87.87,0,0,1,.61,1c0,.42,0,.85,0,1.27Z" transform="translate(-73.09 -5.29)"/><path class="cls-1" d="M406.81,1221.07c.47-1.3-.35-1.88-1.64-2.39-2.26-.9-1.8-.32-1.81-2.76,0-.7,0-1.4,0-2.11,0-.44.15-.76.64-.75s.6.33.6.74c0,.89,0,1.79-.05,2.68a.73.73,0,0,0,.54.85c.75.28,1.47.67,2.22.94a1.08,1.08,0,0,1,.8,1.26c-.06.78,0,1.57-.06,2.36a.67.67,0,0,0,.5.8c.83.32,1.64.71,2.46,1,.41.17.67.44.49.88s-.56.46-1,.29l-3.21-1.39a.78.78,0,0,1-.54-.84C406.83,1222.22,406.81,1221.75,406.81,1221.07Z" transform="translate(-73.09 -5.29)"/><polygon class="cls-1" points="1117.22 592.18 992.34 592.18 992.34 477.93 995.5 477.93 995.5 589.01 1117.22 589.01 1117.22 592.18"/><path class="cls-1" d="M1178.3,586.34c-36.28,0-63.25-9.63-80.22-28.66-23.52-26.39-18.92-62-18.87-62.36l3.13.43c0,.34-4.43,34.57,18.13,59.85,17.06,19.11,44.84,28.38,82.53,27.52l.08,3.16C1181.47,586.32,1179.87,586.34,1178.3,586.34Z" transform="translate(-73.09 -5.29)"/><path class="cls-1" d="M1093.94,603.56h-2.46v-.89h6v.89H1095v7.2h-1.06Z" transform="translate(-73.09 -5.29)"/><path class="cls-1" d="M1098.07,608.05a1.85,1.85,0,0,0,2,2,3.8,3.8,0,0,0,1.61-.3l.18.76a4.71,4.71,0,0,1-1.93.36,2.7,2.7,0,0,1-2.86-2.93c0-1.75,1-3.13,2.72-3.13a2.46,2.46,0,0,1,2.4,2.74,4.88,4.88,0,0,1,0,.49Zm3.09-.76a1.49,1.49,0,0,0-1.46-1.71,1.74,1.74,0,0,0-1.62,1.71Z" transform="translate(-73.09 -5.29)"/><path class="cls-1" d="M1103.49,606.52c0-.6,0-1.09,0-1.57h.92l.05.94h0a2,2,0,0,1,1.83-1.07,1.71,1.71,0,0,1,1.64,1.16h0a2.42,2.42,0,0,1,.65-.75,2,2,0,0,1,1.28-.41c.77,0,1.91.51,1.91,2.52v3.42h-1v-3.29c0-1.11-.41-1.79-1.26-1.79a1.38,1.38,0,0,0-1.25,1,2.11,2.11,0,0,0-.08.53v3.59h-1v-3.48c0-.92-.41-1.6-1.21-1.6a1.45,1.45,0,0,0-1.31,1.06,1.5,1.5,0,0,0-.09.52v3.5h-1Z" transform="translate(-73.09 -5.29)"/><path class="cls-1" d="M1113.5,606.85c0-.75,0-1.35,0-1.9h1l0,1h0a2.29,2.29,0,0,1,2.07-1.13c1.4,0,2.45,1.19,2.45,2.95,0,2.09-1.27,3.12-2.63,3.12a2.05,2.05,0,0,1-1.79-.91h0v3.15h-1Zm1,1.55a2.82,2.82,0,0,0,0,.43,1.63,1.63,0,0,0,1.59,1.23c1.11,0,1.76-.91,1.76-2.24,0-1.16-.61-2.16-1.73-2.16a1.68,1.68,0,0,0-1.59,1.31,1.56,1.56,0,0,0-.08.43Z" transform="translate(-73.09 -5.29)"/><path class="cls-1" d="M1123.54,610.76l-.08-.73h0a2.16,2.16,0,0,1-1.77.86,1.66,1.66,0,0,1-1.78-1.67c0-1.4,1.25-2.17,3.49-2.16v-.12a1.19,1.19,0,0,0-1.32-1.34,2.93,2.93,0,0,0-1.51.43l-.24-.69a3.64,3.64,0,0,1,1.91-.52c1.77,0,2.21,1.21,2.21,2.38v2.17a8.47,8.47,0,0,0,.09,1.39Zm-.15-3c-1.15,0-2.46.18-2.46,1.3a.93.93,0,0,0,1,1,1.45,1.45,0,0,0,1.41-1,1.35,1.35,0,0,0,.06-.34Z" transform="translate(-73.09 -5.29)"/><path class="cls-1" d="M1126.11,606.76c0-.68,0-1.27,0-1.81h.92l0,1.14h0a1.75,1.75,0,0,1,1.61-1.27,1,1,0,0,1,.3,0v1a1.94,1.94,0,0,0-.36,0,1.49,1.49,0,0,0-1.42,1.35,3.6,3.6,0,0,0,0,.49v3.1h-1.05Z" transform="translate(-73.09 -5.29)"/><path class="cls-1" d="M1133.19,610.76l-.08-.73h0a2.17,2.17,0,0,1-1.77.86,1.66,1.66,0,0,1-1.78-1.67c0-1.4,1.25-2.17,3.49-2.16v-.12a1.19,1.19,0,0,0-1.32-1.34,2.93,2.93,0,0,0-1.51.43l-.24-.69a3.64,3.64,0,0,1,1.91-.52c1.77,0,2.2,1.21,2.2,2.38v2.17a8.4,8.4,0,0,0,.1,1.39Zm-.16-3c-1.15,0-2.45.18-2.45,1.3a.93.93,0,0,0,1,1,1.45,1.45,0,0,0,1.41-1,1.33,1.33,0,0,0,0-.34Z" transform="translate(-73.09 -5.29)"/><path class="cls-1" d="M1137,603.29V605h1.52v.81H1137v3.13c0,.72.21,1.12.8,1.12a2.21,2.21,0,0,0,.61-.07l0,.79a2.48,2.48,0,0,1-.94.15,1.46,1.46,0,0,1-1.14-.45,2.13,2.13,0,0,1-.41-1.51v-3.16h-.9V605h.9v-1.39Z" transform="translate(-73.09 -5.29)"/><path class="cls-1" d="M1144.54,609.17c0,.6,0,1.13,0,1.59h-.94l-.06-1h0a2.19,2.19,0,0,1-1.92,1.08c-.91,0-2-.5-2-2.54V605h1v3.22c0,1.1.34,1.84,1.3,1.84a1.52,1.52,0,0,0,1.39-1,1.49,1.49,0,0,0,.1-.54V605h1Z" transform="translate(-73.09 -5.29)"/><path class="cls-1" d="M1146.3,606.76c0-.68,0-1.27,0-1.81h.92l0,1.14h0a1.74,1.74,0,0,1,1.6-1.27.91.91,0,0,1,.3,0v1a1.79,1.79,0,0,0-.36,0,1.47,1.47,0,0,0-1.41,1.35,2.46,2.46,0,0,0-.05.49v3.1h-1Z" transform="translate(-73.09 -5.29)"/><path class="cls-1" d="M1150.69,608.05a1.85,1.85,0,0,0,2,2,3.83,3.83,0,0,0,1.61-.3l.18.76a4.71,4.71,0,0,1-1.93.36,2.7,2.7,0,0,1-2.86-2.93c0-1.75,1-3.13,2.72-3.13a2.46,2.46,0,0,1,2.4,2.74,4.88,4.88,0,0,1,0,.49Zm3.09-.76a1.5,1.5,0,0,0-1.46-1.71,1.74,1.74,0,0,0-1.62,1.71Z" transform="translate(-73.09 -5.29)"/><path class="cls-1" d="M1058.54,568l-8.08,2.64v-1.13l4-1.26c1.09-.35,2.07-.65,3-.87v0c-.93-.23-2-.56-3-.92l-4-1.37V564l8.08,2.89Z" transform="translate(-73.09 -5.29)"/><path class="cls-1" d="M1055.59,558.25a2.83,2.83,0,0,1,3.08,2.89,2.76,2.76,0,0,1-3,2.79,2.84,2.84,0,0,1-3.09-2.88A2.76,2.76,0,0,1,1055.59,558.25Zm.06,4.61c1.27,0,2.23-.73,2.23-1.76s-1-1.77-2.25-1.77c-1,0-2.23.5-2.23,1.74S1054.55,562.86,1055.65,562.86Z" transform="translate(-73.09 -5.29)"/><path class="cls-1" d="M1050,556.92v-1.06h8.51v1.06Z" transform="translate(-73.09 -5.29)"/><path class="cls-1" d="M1051.07,552.82h1.67v-1.51h.8v1.51h3.13c.72,0,1.13-.21,1.13-.79a2.78,2.78,0,0,0-.07-.62l.79,0a2.63,2.63,0,0,1,.14.93,1.45,1.45,0,0,1-.44,1.14,2.15,2.15,0,0,1-1.51.41h-3.17v.9h-.8v-.9h-1.39Z" transform="translate(-73.09 -5.29)"/><path class="cls-1" d="M1058.54,546.9l-.73.09v0a2.16,2.16,0,0,1,.86,1.78,1.65,1.65,0,0,1-1.66,1.77c-1.41,0-2.17-1.25-2.16-3.49h-.12a1.2,1.2,0,0,0-1.35,1.32,2.84,2.84,0,0,0,.44,1.51l-.7.24a3.6,3.6,0,0,1-.52-1.9c0-1.78,1.22-2.21,2.38-2.21h2.17a8.32,8.32,0,0,0,1.39-.1Zm-3,.16c0,1.15.18,2.46,1.31,2.46a.93.93,0,0,0,1-1,1.45,1.45,0,0,0-1-1.4,1,1,0,0,0-.33-.06Z" transform="translate(-73.09 -5.29)"/><path class="cls-1" d="M1052.74,539.33c.42,0,.88,0,1.59,0h3.37a3.31,3.31,0,0,1,2.65.83,3.06,3.06,0,0,1,.7,2.11,3.78,3.78,0,0,1-.48,1.93l-.81-.27a3.25,3.25,0,0,0,.46-1.7c0-1.08-.56-1.87-2-1.87h-.64v0a2.08,2.08,0,0,1,1,1.85,2.6,2.6,0,0,1-2.83,2.47,2.79,2.79,0,0,1-3.09-2.61,1.92,1.92,0,0,1,1-1.81v0l-.87,0Zm2.29,1.09a1.44,1.44,0,0,0-.48.06,1.53,1.53,0,0,0-1.12,1.48c0,1,.85,1.73,2.2,1.73,1.14,0,2.08-.58,2.08-1.72a1.52,1.52,0,0,0-1.08-1.46,1.82,1.82,0,0,0-.56-.09Z" transform="translate(-73.09 -5.29)"/><path class="cls-1" d="M1055.83,537a1.87,1.87,0,0,0,2-2,3.92,3.92,0,0,0-.3-1.61l.75-.18a4.67,4.67,0,0,1,.36,1.93,2.69,2.69,0,0,1-2.93,2.85c-1.75,0-3.13-1-3.13-2.72a2.47,2.47,0,0,1,2.74-2.4,4.35,4.35,0,0,1,.49,0Zm-.75-3.1a1.51,1.51,0,0,0-1.72,1.47,1.76,1.76,0,0,0,1.72,1.62Z" transform="translate(-73.09 -5.29)"/><path class="cls-1" d="M1354,473.62h-4v-10h4a1.58,1.58,0,0,0,0-3.16h-4v-2.38a3.43,3.43,0,0,0-3.43-3.42h0a3.42,3.42,0,0,0-3.43,3.42v1.15a4.94,4.94,0,0,0-1.81-.35h-14.15a4.88,4.88,0,0,0-4.88,4.88v2.76h-6.59a2.38,2.38,0,0,0,0,4.75h6.59v2.51a4.89,4.89,0,0,0,4.88,4.88h14.15a4.93,4.93,0,0,0,1.88-.38,3.42,3.42,0,0,0,3.36,2.75h0a3.44,3.44,0,0,0,3.43-3.43v-.79h4a1.58,1.58,0,0,0,0-3.16Z" transform="translate(-73.09 -5.29)"/><line class="cls-3" x1="1205.51" y1="530.2" x2="1205.51" y2="528.7"/><line class="cls-4" x1="1205.51" y1="525.98" x2="1205.51" y2="511.01"/><polyline class="cls-3" points="1205.51 509.65 1205.51 508.15 1207.01 508.15"/><line class="cls-5" x1="1210.03" y1="508.15" x2="1317.41" y2="508.15"/><polyline class="cls-3" points="1318.93 508.15 1320.43 508.15 1320.43 509.65"/><line class="cls-4" x1="1320.43" y1="512.37" x2="1320.43" y2="527.34"/><line class="cls-3" x1="1320.43" y1="528.7" x2="1320.43" y2="530.2"/><line class="cls-6" x1="1263.55" y1="477.93" x2="1263.55" y2="530.2"/><path class="cls-7" d="M1113.15,724.25h.06c.61,0,.72.14.72.74v4.85c0,.45-.17.63-.62.63h-2.09a.5.5,0,0,1-.57-.57v-5c0-.46.16-.62.64-.63h.12c.14-.33.16-.35.53-.35h.7C1113,723.9,1113,723.93,1113.15,724.25Zm-1.43.31c-.17,0-.33,0-.49,0s-.28.07-.28.27v5.08c0,.18.08.27.26.27h2.15a.23.23,0,0,0,.27-.27v-5.08c0-.2-.1-.28-.29-.27h-.51l0-.34h-1.06Z" transform="translate(-73.09 -5.29)"/><path class="cls-7" d="M1112.28,727l1,.1-1.57,2.07,0,0,.65-1.51h-1l1.11-2.18h0Z" transform="translate(-73.09 -5.29)"/><path class="cls-7" d="M1117.52,724.25h.06c.61,0,.72.14.72.74v4.85c0,.45-.17.63-.62.63h-2.08a.5.5,0,0,1-.57-.57v-5c0-.46.16-.62.63-.63h.12c.14-.33.17-.35.54-.35h.69C1117.36,723.9,1117.4,723.93,1117.52,724.25Zm-1.42.31c-.17,0-.33,0-.49,0s-.29.07-.29.27c0,1.69,0,3.39,0,5.08a.23.23,0,0,0,.27.27h2.15c.19,0,.26-.09.26-.27v-5.08c0-.2-.09-.28-.28-.27h-.51l0-.34h-1Z" transform="translate(-73.09 -5.29)"/><path class="cls-7" d="M1116.65,727l1,.1-1.58,2.07,0,0,.65-1.51h-1l1.1-2.18h0Z" transform="translate(-73.09 -5.29)"/><path class="cls-7" d="M1122.07,724.25h.06c.61,0,.72.14.72.74v4.85c0,.45-.17.63-.62.63h-2.09a.5.5,0,0,1-.57-.57v-5c0-.46.16-.62.63-.63h.13c.13-.33.16-.35.53-.35h.7C1121.9,723.9,1122,723.93,1122.07,724.25Zm-1.43.31c-.17,0-.33,0-.49,0s-.28.07-.28.27v5.08c0,.18.07.27.26.27h2.15a.23.23,0,0,0,.27-.27v-5.08c0-.2-.1-.28-.29-.27h-.51l0-.34h-1.06Z" transform="translate(-73.09 -5.29)"/><path class="cls-7" d="M1121.2,727l1,.1-1.57,2.07,0,0,.66-1.51h-1l1.1-2.18h0Z" transform="translate(-73.09 -5.29)"/><path class="cls-7" d="M1118.05,718.64h-.32v-.79h.32a.13.13,0,0,0,0-.26h-.32v-.18a.27.27,0,0,0-.27-.28h0a.27.27,0,0,0-.27.28v.09l-.15,0h-1.12a.38.38,0,0,0-.39.39v.22H1115a.19.19,0,0,0-.19.19.2.2,0,0,0,.19.19h.53v.2a.38.38,0,0,0,.39.38H1117a.33.33,0,0,0,.15,0,.28.28,0,0,0,.27.22h0a.27.27,0,0,0,.27-.27v-.06h.32a.13.13,0,0,0,0-.26Z" transform="translate(-73.09 -5.29)"/><polyline class="cls-7" points="1038.95 718.29 1038.95 716.53 1048.11 716.53 1048.11 718.29"/><line class="cls-8" x1="1038.95" y1="718.29" x2="1038.95" y2="718.17"/><line class="cls-9" x1="1038.95" y1="717.95" x2="1038.95" y2="716.76"/><polyline class="cls-8" points="1038.95 716.65 1038.95 716.53 1039.07 716.53"/><line class="cls-10" x1="1039.31" y1="716.53" x2="1047.87" y2="716.53"/><polyline class="cls-8" points="1047.99 716.53 1048.11 716.53 1048.11 716.65"/><line class="cls-9" x1="1048.11" y1="716.87" x2="1048.11" y2="718.06"/><line class="cls-8" x1="1048.11" y1="718.17" x2="1048.11" y2="718.29"/><line class="cls-11" x1="1043.58" y1="714.12" x2="1043.58" y2="718.29"/><path class="cls-7" d="M1116.75,712.81a11,11,0,1,1-11,11,11,11,0,0,1,11-11m0-1a12,12,0,1,0,12,12,12,12,0,0,0-12-12Z" transform="translate(-73.09 -5.29)"/></g></svg>